<svg xmlns="http://www.w3.org/2000/svg" width="32" height="32"><path d="M24.221 12.069a7.925 7.925 0 11-14.64 6.068 7.925 7.925 0 0114.64-6.068zm2.413-4.528c1.502 0 2.725-1.222 2.725-2.725s-1.222-2.725-2.725-2.725-2.725 1.222-2.725 2.725 1.222 2.725 2.725 2.725zM8.912 4.553a13.11 13.11 0 017.981-2.678c2.104 0 4.116.48 5.98 1.426l.849-1.672A14.946 14.946 0 0016.893 0a14.972 14.972 0 00-9.114 3.059A15.229 15.229 0 002.41 10.8l1.798.534a13.33 13.33 0 014.703-6.78z"/><path d="M29.975 7.548l-1.623.94a13.228 13.228 0 011.772 6.619 13.11 13.11 0 01-2.678 7.981 13.339 13.339 0 01-6.78 4.703l.534 1.798a15.219 15.219 0 007.741-5.369A14.972 14.972 0 0032 15.106c0-2.657-.7-5.27-2.025-7.558zM4.209 18.879l-1.798.534a15.139 15.139 0 0010.176 10.176l.534-1.798A13.259 13.259 0 014.21 18.88zm12.684 7.672c-1.502 0-2.725 1.222-2.725 2.725s1.222 2.725 2.725 2.725 2.725-1.222 2.725-2.725-1.222-2.725-2.725-2.725zM5.449 15.107a2.725 2.725 0 11-5.45 0 2.725 2.725 0 015.45 0z"/></svg>