<svg xmlns="http://www.w3.org/2000/svg" width="32" height="32"><path d="M25.59 17.089h-1.233V2.2a2.265 2.265 0 00-2.263-2.263h-11.36c-.907 0-1.679.388-2.209.98-3.128 3.59-3.843 4.043-4.008 4.888-.249.801-.087-.208-.135 23.869a2.265 2.265 0 002.263 2.263h15.449a2.265 2.265 0 002.263-2.263v-1.225h.935a2.443 2.443 0 002.44-2.44V19.23a2.145 2.145 0 00-2.142-2.142zM9.767 1.488v2.417c0 .769-.626 1.395-1.395 1.395H6.289c3.354-3.721 3.172-3.602 3.478-3.812zm13.341 28.187c0 .558-.454 1.013-1.013 1.013H6.646a1.014 1.014 0 01-1.013-1.013c.002-24.032-.005-22.986.006-23.125h2.733a2.649 2.649 0 002.645-2.645V1.187h11.078c.559 0 1.013.454 1.013 1.013v18.227h-7.295c-.806 0-1.462.656-1.462 1.462v5.098c0 .806.656 1.462 1.462 1.462h7.295zm3.375-3.665c0 .656-.534 1.19-1.19 1.19h-9.48a.212.212 0 01-.212-.212V21.89c0-.117.095-.212.212-.212 10.66 0 10.035.083 10.67-.233zm0-6.579c0 .55-.447.996-.996.996h-1.129v-2.089h1.233c.492 0 .892.4.892.893z"/><path d="M20.021 10.534h-.002a.624.624 0 10.002 0zm-11.439 1.25h8.938a.625.625 0 000-1.25H8.582a.625.625 0 000 1.25zm0 3.498H20.02a.625.625 0 000-1.25H8.582a.625.625 0 000 1.25zm12.064 2.872a.625.625 0 00-.625-.625H8.583a.625.625 0 000 1.25h11.438c.345 0 .625-.28.625-.625z"/></svg>