<svg xmlns="http://www.w3.org/2000/svg" width="32" height="32"><path d="M31.863 19.862l-2.419-2.419a1.682 1.682 0 00-1.198-.496c-.332 0-.649.095-.921.272l-2.065-2.065.716-.716a1.965 1.965 0 000-2.772 1.947 1.947 0 00-1.213-.566 1.961 1.961 0 00-1.613-2.502c.088-.225.134-.466.134-.715a1.955 1.955 0 00-1.799-1.953 1.963 1.963 0 00-1.883-2.503 1.94 1.94 0 00-1.07.318l-.129-.245c-.3-.57-.929-.893-1.567-.804l-2.955.412a1.88 1.88 0 00-1.258-.478c-.506 0-.983.197-1.341.556a1.888 1.888 0 00-.55 1.23 1.887 1.887 0 00-1.744.512 1.899 1.899 0 00-.464 1.92 1.892 1.892 0 00-1.113.54 1.9 1.9 0 00-.498 1.802 1.884 1.884 0 00-1.189.548 1.898 1.898 0 000 2.681l.739.739c.081.081.169.153.26.217.082.543.298 1.057.626 1.495l-2.672 2.673a1.697 1.697 0 00-2.119.224L.139 20.186a.47.47 0 00.662.663L3.22 18.43a.756.756 0 011.069 0l1.505 1.505a.469.469 0 00.663-.663L5.365 18.18l2.954-2.954a.469.469 0 000-.663 2.39 2.39 0 01-.546-.85l.029.001a1.895 1.895 0 001.889-1.727 1.887 1.887 0 001.823-.493c.303-.303.481-.684.536-1.078a1.902 1.902 0 001.975-.447 1.899 1.899 0 00.225-2.409 1.88 1.88 0 00.899-.504l.017-.018a2.29 2.29 0 00.259-.032l1.086-.19a.472.472 0 00.361-.142l.009-.008 1.843-1.843.014-.014.141-.141c.193-.193.45-.3.723-.3s.53.106.723.299a1.024 1.024 0 010 1.446l-.387.387a.469.469 0 00.663.663l.002-.002a1.023 1.023 0 011.443 1.448l-.545.545-.003.003a.468.468 0 10.664.663l.002-.002c.192-.192.448-.297.721-.297s.53.106.723.299a1.024 1.024 0 010 1.446l-.403.403a.469.469 0 00.663.664c.193-.193.45-.299.723-.299s.53.106.723.299a1.026 1.026 0 010 1.447l-1.042 1.042-.005.005a.012.012 0 01-.005.005l-6.016 6.016c-.408.408-.951.633-1.529.633s-1.12-.225-1.528-.633l-.085-.085a.469.469 0 00-.663 0l-3.247 3.247-3.402-3.402a.469.469 0 00-.663.663l3.815 3.815a.756.756 0 010 1.069l-2.419 2.419a.469.469 0 00.662.663l2.419-2.419a1.697 1.697 0 00.224-2.119l2.955-2.955a3.073 3.073 0 001.931.675c.828 0 1.606-.322 2.192-.908l5.69-5.689 2.039 2.039-5.827 5.827-1.216-1.216a.469.469 0 00-.663.663l1.242 1.242a1.682 1.682 0 00-.272.922c0 .452.176.878.496 1.198l2.419 2.419a.469.469 0 00.663-.663l-2.419-2.419a.755.755 0 010-1.07l6.653-6.653a.752.752 0 011.07 0l2.419 2.419a.469.469 0 00.663-.663zM11.944 3.849a.948.948 0 01.622-.278l-.024.029a1.004 1.004 0 00-.186.757l.081.512a2.559 2.559 0 001.183 1.784.943.943 0 01-.491-.263L11.94 5.202a.96.96 0 01.002-1.353zM8.48 12.494a.958.958 0 01-1.355 0l-.739-.738A.96.96 0 017.74 10.4l.739.739c.181.181.281.422.281.678s-.1.497-.281.678zm2.37-1.666c-.181.181-.422.281-.678.281s-.497-.1-.678-.281l-1.09-1.091-.002-.002-.33-.33A.96.96 0 019.427 8.05l1.422 1.422a.96.96 0 010 1.355zm2.511-1.525c-.181.181-.422.281-.678.281s-.497-.1-.678-.281l-.492-.492-1.422-1.422-.002-.002-.44-.44a.958.958 0 011.355-1.355l.271.271.005.005 2.08 2.08a.958.958 0 010 1.355zm4.125-4.572l-1.164 1.164-1.059.185c-.436.076-.874-.024-1.234-.281s-.596-.64-.666-1.077l-.081-.512c-.004-.024.005-.042.013-.053s.023-.024.047-.028l3.622-.505a.598.598 0 01.609.312l.244.464-.33.33z"/></svg>