<svg xmlns="http://www.w3.org/2000/svg" width="32" height="32"><path d="M16 24.405a.625.625 0 00-.625.625v.05a.625.625 0 001.25 0v-.05a.625.625 0 00-.625-.625z"/><path d="M16 4.236c-4.962 0-8.999 4.037-8.999 9 0 1.568.41 3.112 1.184 4.465a9.057 9.057 0 003.119 3.213 3.4 3.4 0 01.723.57v7.867c0 1.56.805 2.649 1.959 2.649h4.028c1.153 0 1.959-1.09 1.959-2.649v-7.867c.184-.197.421-.385.723-.57a8.995 8.995 0 004.303-7.678c0-4.962-4.037-9-8.999-9zm2.722 25.115c0 .811-.298 1.399-.709 1.399h-4.028c-.411 0-.709-.588-.709-1.399v-.689h5.445v.689zm0-1.939h-5.445V16.388c.29-.212.717-.151.967-.088.682.173 1.105.606 1.13.744v6.299a.625.625 0 001.25 0v-6.298c.031-.144.453-.573 1.13-.744.25-.064.677-.124.967.088v11.024zm-4.807-12.418L16 10.791l2.085 4.203c-.268.011-.549.06-.838.152a3.519 3.519 0 00-1.247.698 3.528 3.528 0 00-1.247-.698 3.195 3.195 0 00-.838-.152zm6.128 4.854l-.07.045v-3.761l-.001-.015a.34.34 0 00-.003-.045l-.003-.023-.008-.047-.004-.019a.597.597 0 00-.017-.056l-.003-.009a.721.721 0 00-.027-.064v-.001L16.56 9.106a.624.624 0 00-1.12 0l-3.347 6.746a.654.654 0 00-.048.132l-.003.013a.507.507 0 00-.009.054l-.002.017a.436.436 0 00-.003.051l-.001.011v3.761l-.07-.045a7.705 7.705 0 01-3.707-6.613c0-4.273 3.476-7.75 7.749-7.75s7.75 3.476 7.75 7.75a7.706 7.706 0 01-3.707 6.613z"/><path d="M20.933 8.261a.625.625 0 00-.88.888 5.714 5.714 0 011.702 4.086 5.75 5.75 0 01-.259 1.71.625.625 0 101.194.37 7.009 7.009 0 00.315-2.081 6.958 6.958 0 00-2.072-4.974zm-1.707-1.245l-.035-.018a.625.625 0 10-.577 1.109l.035.018a.622.622 0 00.843-.265.624.624 0 00-.266-.843zm-7.855-3.205l-1.057-1.83a.626.626 0 00-1.083.625l1.057 1.83a.625.625 0 101.083-.625zM7.308 7.339L5.526 6.311a.625.625 0 10-.625 1.083l1.782 1.028a.625.625 0 10.625-1.083zM22.54 1.752a.625.625 0 00-.854.229l-1.057 1.83a.625.625 0 101.083.625l1.057-1.83a.625.625 0 00-.229-.854zM5.527 12.454H3.546a.625.625 0 000 1.25h1.981a.625.625 0 000-1.25zM16 0a.625.625 0 00-.625.625V2.76a.625.625 0 001.25 0V.625A.625.625 0 0016 0zm11.327 6.54a.626.626 0 00-.854-.229l-1.782 1.028a.626.626 0 00.625 1.083l1.782-1.028a.626.626 0 00.229-.854zm1.127 5.914h-1.981a.625.625 0 000 1.25h1.981a.625.625 0 000-1.25zm-1.356 6.311l-1.646-.95a.625.625 0 10-.625 1.083l1.646.95a.625.625 0 10.625-1.083zm-16.094 2.967a.625.625 0 00-.854.229l-.919 1.591a.625.625 0 101.083.625l.919-1.591a.625.625 0 00-.229-.854zm-3.603-3.689a.626.626 0 00-.854-.229l-1.646.95a.626.626 0 00.625 1.083l1.646-.95a.626.626 0 00.229-.854zm15.367 5.509l-.919-1.591a.626.626 0 00-1.083.625l.919 1.591a.625.625 0 101.083-.625z"/></svg>