<svg xmlns="http://www.w3.org/2000/svg" width="32" height="32"><path d="M2.813 18.75C1.262 18.75 0 17.488 0 15.937s1.262-2.813 2.813-2.813c1.551 0 2.813 1.262 2.813 2.813S4.364 18.75 2.813 18.75zm12-12.5c-1.723 0-3.125-1.402-3.125-3.125S13.09 0 14.813 0s3.125 1.402 3.125 3.125a3.129 3.129 0 01-3.125 3.125zm0-3.75a.626.626 0 10.002 1.252.626.626 0 00-.002-1.252zm-8.531 7.625c-.81 0-1.571-.315-2.144-.888S3.25 7.903 3.25 7.094c0-.81.315-1.571.888-2.144s1.334-.888 2.144-.888 1.571.315 2.144.888c.572.572.888 1.334.888 2.144s-.315 1.571-.888 2.144a3.013 3.013 0 01-2.143.888zm0-3.562a.529.529 0 00-.532.532c0 .083.02.24.156.375a.527.527 0 00.751 0 .527.527 0 000-.752.525.525 0 00-.375-.156zm17.625 3.687c-.927 0-1.798-.361-2.453-1.016s-1.016-1.526-1.016-2.453.361-1.798 1.016-2.453c.655-.655 1.526-1.016 2.453-1.016s1.798.361 2.453 1.016c.655.655 1.016 1.526 1.016 2.453s-.361 1.798-1.016 2.453a3.446 3.446 0 01-2.453 1.016zm0-4.437c-.259 0-.502.101-.685.284s-.284.426-.284.685.101.502.284.685c.183.183.426.284.685.284s.502-.101.685-.284c.183-.183.284-.426.284-.685s-.101-.502-.284-.685a.962.962 0 00-.685-.284zm4.031 14.123a4.051 4.051 0 01-2.873-1.188c-1.584-1.584-1.584-4.162 0-5.746s4.161-1.584 5.745 0 1.584 4.162 0 5.746a4.05 4.05 0 01-2.873 1.188zm0-5.622c-.4 0-.8.152-1.105.457-.609.609-.609 1.601 0 2.21s1.6.609 2.21 0a1.561 1.561 0 00-1.105-2.667zm-4 15.997a4.299 4.299 0 01-3.05-1.261c-1.681-1.681-1.681-4.417 0-6.099s4.417-1.682 6.099 0a4.317 4.317 0 010 6.099 4.298 4.298 0 01-3.049 1.261zm0-6.122a1.81 1.81 0 00-1.282 3.093 1.815 1.815 0 002.563 0 1.814 1.814 0 00-1.282-3.093zM5.781 27.437a2.71 2.71 0 01-1.922-.795c-1.06-1.06-1.06-2.785 0-3.845s2.785-1.06 3.845 0a2.722 2.722 0 010 3.845 2.71 2.71 0 01-1.923.795zM13.125 32a1.873 1.873 0 01-1.326-3.2c.731-.731 1.921-.731 2.652 0s.731 1.921 0 2.652a1.873 1.873 0 01-1.326.548z"/></svg>