<svg xmlns="http://www.w3.org/2000/svg" width="32" height="32"><path d="M22.174 14.269a2.357 2.357 0 00-3.814-1.458c1.857-10.13 1.731-9.353 1.731-9.663a2.623 2.623 0 00-5.198-.525l-1.296 8.289-1.574-7.134a2.621 2.621 0 00-4.34-1.641 2.622 2.622 0 00-.811 2.585l1.778 9.6c.378 2.014-.577 3.09-1.469 5.687a6.565 6.565 0 00.902 6.017l2.623 3.62c.26.383.37.848.309 1.306 0 .579.47 1.049 1.049 1.049h8.918a1.05 1.05 0 001.049-1.049c0-1.144-.215-.64 2.02-4.449a10.486 10.486 0 001.128-4.47v-4.092l.142-.22a2.408 2.408 0 00-3.148-3.452zm1.149.755a1.37 1.37 0 011.107 2.14l-2.397 3.819a1.369 1.369 0 01-2.528-.325 1.442 1.442 0 01.189-1.096c2.927-4.721 2.067-3.305 2.408-3.851a1.472 1.472 0 011.222-.687zm-2.151-.278a2.1 2.1 0 01-.446 1.175s-2.366 3.767-2.366 3.793c-.86 1.374-2.791.792-2.586-.829a3.147 3.147 0 003.111-3.148v-.525a1.05 1.05 0 00-.462-.866l.142-.226c.808-1.29 2.623-.871 2.607.624zm-6.337 5.188h-.671a.525.525 0 110-1.05h.551c-.035.354.007.712.121 1.049zM7.9 4.543a1.585 1.585 0 012.094-1.771c.532.191.922.652 1.022 1.209l1.873 8.519a.793.793 0 001.548-.048l1.49-9.631c.086-.407.329-.763.677-.991a1.573 1.573 0 012.439 1.316c0 .178.115-.525-1.978 11.016h-3.504a3.635 3.635 0 00-2.193.729c-.606.449-1.179.939-1.715 1.469.151-.724.16-1.471.026-2.198zm16.231 17.49a9.5 9.5 0 01-.981 3.94c-2.303 3.929-2.167 3.551-2.167 4.978h-8.918a2.809 2.809 0 00-.525-1.91l-2.623-3.62a5.544 5.544 0 01-.971-4.27c.446-2.14 2.292-4.113 4.045-5.414a2.62 2.62 0 011.574-.525h4.27v.525a2.098 2.098 0 01-2.098 2.098h-1.574a1.574 1.574 0 000 3.148h.74a2.098 2.098 0 011.925 1.259.524.524 0 10.96-.419 3.045 3.045 0 00-.189-.357c.329-.079.639-.221.913-.42a2.411 2.411 0 004.396.524l1.222-1.962z"/></svg>