<svg aria-hidden="true" style="position:absolute;width:0;height:0" xmlns="http://www.w3.org/2000/svg" overflow="hidden"><defs><symbol id="icon-two-down-arrows" viewBox="0 0 32 32"><path d="M16 32l14.457-14.457-4.101-4.101L16 23.798 5.644 13.442l-4.101 4.101z"/><path d="M30.457 4.101L26.356 0 16 10.356 5.644 0 1.543 4.101 16 18.558z"/></symbol><symbol id="icon-top-quotes" viewBox="0 0 32 32"><path d="M.007 22.205c0 4.207 3.41 7.617 7.617 7.617s7.617-3.41 7.617-7.617-3.41-7.617-7.617-7.617c-.865 0-1.692.151-2.467.416C6.871 5.172 14.538-1.168 7.431 4.05-.45 9.836-.002 21.972.007 22.194v.01zm16.758 0a7.617 7.617 0 007.617 7.617 7.617 7.617 0 10-.001-15.234c-.865 0-1.692.151-2.467.416 1.714-9.832 9.381-16.172 2.274-10.954-7.881 5.786-7.433 17.922-7.424 18.144v.01z"/></symbol><symbol id="icon-target-mapping" viewBox="0 0 32 32"><path d="M16 10.182c-3.215 0-5.818 2.604-5.818 5.818s2.604 5.818 5.818 5.818 5.818-2.604 5.818-5.818-2.604-5.818-5.818-5.818zm13.004 4.363C28.335 8.48 23.52 3.665 17.455 2.996V0h-2.909v2.996C8.481 3.665 3.666 8.48 2.997 14.545H.001v2.909h2.996c.669 6.065 5.484 10.88 11.549 11.549v2.996h2.909v-2.996c6.065-.669 10.88-5.484 11.549-11.549H32v-2.909h-2.996zM16 26.182c-5.622 0-10.182-4.56-10.182-10.182S10.378 5.818 16 5.818 26.182 10.378 26.182 16 21.622 26.182 16 26.182z"/></symbol><symbol id="icon-righ-arrow" viewBox="0 0 32 32"><path d="M21.548 5.381a1.145 1.145 0 00-1.612 0 1.084 1.084 0 00-.001 1.552l8.177 7.958H1.128c-.628 0-1.128.488-1.128 1.1s.5 1.113 1.128 1.113h26.984l-8.177 7.943c-.202.2-.327.478-.327.785s.125.585.327.785c.451.44 1.179.44 1.612 0l10.115-9.843a1.058 1.058 0 00.001-1.554l-.001-.001z"/></symbol><symbol id="icon-loading" viewBox="0 0 32 32"><path d="M2.813 18.75C1.262 18.75 0 17.488 0 15.937s1.262-2.813 2.813-2.813c1.551 0 2.813 1.262 2.813 2.813S4.364 18.75 2.813 18.75zm12-12.5c-1.723 0-3.125-1.402-3.125-3.125S13.09 0 14.813 0s3.125 1.402 3.125 3.125a3.129 3.129 0 01-3.125 3.125zm0-3.75a.626.626 0 10.002 1.252.626.626 0 00-.002-1.252zm-8.531 7.625c-.81 0-1.571-.315-2.144-.888S3.25 7.903 3.25 7.094c0-.81.315-1.571.888-2.144s1.334-.888 2.144-.888 1.571.315 2.144.888c.572.572.888 1.334.888 2.144s-.315 1.571-.888 2.144a3.013 3.013 0 01-2.143.888zm0-3.562a.529.529 0 00-.532.532c0 .083.02.24.156.375a.527.527 0 00.751 0 .527.527 0 000-.752.525.525 0 00-.375-.156zm17.625 3.687c-.927 0-1.798-.361-2.453-1.016s-1.016-1.526-1.016-2.453.361-1.798 1.016-2.453c.655-.655 1.526-1.016 2.453-1.016s1.798.361 2.453 1.016c.655.655 1.016 1.526 1.016 2.453s-.361 1.798-1.016 2.453a3.446 3.446 0 01-2.453 1.016zm0-4.437c-.259 0-.502.101-.685.284s-.284.426-.284.685.101.502.284.685c.183.183.426.284.685.284s.502-.101.685-.284c.183-.183.284-.426.284-.685s-.101-.502-.284-.685a.962.962 0 00-.685-.284zm4.031 14.123a4.051 4.051 0 01-2.873-1.188c-1.584-1.584-1.584-4.162 0-5.746s4.161-1.584 5.745 0 1.584 4.162 0 5.746a4.05 4.05 0 01-2.873 1.188zm0-5.622c-.4 0-.8.152-1.105.457-.609.609-.609 1.601 0 2.21s1.6.609 2.21 0a1.561 1.561 0 00-1.105-2.667zm-4 15.997a4.299 4.299 0 01-3.05-1.261c-1.681-1.681-1.681-4.417 0-6.099s4.417-1.682 6.099 0a4.317 4.317 0 010 6.099 4.298 4.298 0 01-3.049 1.261zm0-6.122a1.81 1.81 0 00-1.282 3.093 1.815 1.815 0 002.563 0 1.814 1.814 0 00-1.282-3.093zM5.781 27.437a2.71 2.71 0 01-1.922-.795c-1.06-1.06-1.06-2.785 0-3.845s2.785-1.06 3.845 0a2.722 2.722 0 010 3.845 2.71 2.71 0 01-1.923.795zM13.125 32a1.873 1.873 0 01-1.326-3.2c.731-.731 1.921-.731 2.652 0s.731 1.921 0 2.652a1.873 1.873 0 01-1.326.548z"/></symbol><symbol id="icon-world" viewBox="0 0 32 32"><path d="M16 0C7.164 0 0 7.164 0 16s7.164 16 16 16 16-7.164 16-16C31.99 7.168 24.832.01 16 0zm13.838 21.605l-4.55.785c.521-1.91.802-3.878.837-5.857h4.795a14.85 14.85 0 01-1.082 5.072zM1.08 16.533h4.795c.035 1.979.316 3.947.837 5.857l-4.55-.785a14.826 14.826 0 01-1.082-5.072zm1.082-6.138l4.55-.785a23.863 23.863 0 00-.837 5.857H1.08a14.85 14.85 0 011.082-5.072zm14.371-1.832c1.916.024 3.828.199 5.717.522l1.883.325c.578 1.968.89 4.005.925 6.056h-8.525zm5.9-.529a37.753 37.753 0 00-5.899-.537v-6.4c3.058.294 5.714 3.093 7.219 7.167zm-6.966-.537a37.764 37.764 0 00-5.899.537l-1.32.228c1.505-4.075 4.161-6.876 7.219-7.168zM9.75 9.085a36.648 36.648 0 015.717-.522v6.903H6.942c.036-2.051.347-4.088.925-6.056zm-2.809 7.448h8.525v6.903a36.648 36.648 0 01-5.717-.522l-1.883-.325a22.878 22.878 0 01-.925-6.056zm2.626 7.433c1.949.334 3.922.514 5.899.54v6.4c-3.058-.294-5.714-3.093-7.219-7.168zm6.966.54a38.011 38.011 0 005.899-.54l1.32-.228c-1.505 4.075-4.161 6.876-7.219 7.168zm5.717-1.591a36.648 36.648 0 01-5.717.522v-6.903h8.525a22.918 22.918 0 01-.925 6.056zm3.875-7.448a23.863 23.863 0 00-.837-5.857l4.55.785a14.826 14.826 0 011.082 5.072zm3.173-6.248l-4.362-.753a14.706 14.706 0 00-4.243-6.64 15.002 15.002 0 018.605 7.393zM11.307 1.827a14.706 14.706 0 00-4.243 6.64l-4.362.753a15.006 15.006 0 018.605-7.393zM2.702 22.781l4.362.753a14.706 14.706 0 004.243 6.64 15.002 15.002 0 01-8.605-7.393zm17.991 7.392a14.706 14.706 0 004.243-6.64l4.362-.753a15.006 15.006 0 01-8.605 7.393z"/></symbol><symbol id="icon-handshake" viewBox="0 0 32 32"><path d="M31.863 19.862l-2.419-2.419a1.682 1.682 0 00-1.198-.496c-.332 0-.649.095-.921.272l-2.065-2.065.716-.716a1.965 1.965 0 000-2.772 1.947 1.947 0 00-1.213-.566 1.961 1.961 0 00-1.613-2.502c.088-.225.134-.466.134-.715a1.955 1.955 0 00-1.799-1.953 1.963 1.963 0 00-1.883-2.503 1.94 1.94 0 00-1.07.318l-.129-.245c-.3-.57-.929-.893-1.567-.804l-2.955.412a1.88 1.88 0 00-1.258-.478c-.506 0-.983.197-1.341.556a1.888 1.888 0 00-.55 1.23 1.887 1.887 0 00-1.744.512 1.899 1.899 0 00-.464 1.92 1.892 1.892 0 00-1.113.54 1.9 1.9 0 00-.498 1.802 1.884 1.884 0 00-1.189.548 1.898 1.898 0 000 2.681l.739.739c.081.081.169.153.26.217.082.543.298 1.057.626 1.495l-2.672 2.673a1.697 1.697 0 00-2.119.224L.139 20.186a.47.47 0 00.662.663L3.22 18.43a.756.756 0 011.069 0l1.505 1.505a.469.469 0 00.663-.663L5.365 18.18l2.954-2.954a.469.469 0 000-.663 2.39 2.39 0 01-.546-.85l.029.001a1.895 1.895 0 001.889-1.727 1.887 1.887 0 001.823-.493c.303-.303.481-.684.536-1.078a1.902 1.902 0 001.975-.447 1.899 1.899 0 00.225-2.409 1.88 1.88 0 00.899-.504l.017-.018a2.29 2.29 0 00.259-.032l1.086-.19a.472.472 0 00.361-.142l.009-.008 1.843-1.843.014-.014.141-.141c.193-.193.45-.3.723-.3s.53.106.723.299a1.024 1.024 0 010 1.446l-.387.387a.469.469 0 00.663.663l.002-.002a1.023 1.023 0 011.443 1.448l-.545.545-.003.003a.468.468 0 10.664.663l.002-.002c.192-.192.448-.297.721-.297s.53.106.723.299a1.024 1.024 0 010 1.446l-.403.403a.469.469 0 00.663.664c.193-.193.45-.299.723-.299s.53.106.723.299a1.026 1.026 0 010 1.447l-1.042 1.042-.005.005a.012.012 0 01-.005.005l-6.016 6.016c-.408.408-.951.633-1.529.633s-1.12-.225-1.528-.633l-.085-.085a.469.469 0 00-.663 0l-3.247 3.247-3.402-3.402a.469.469 0 00-.663.663l3.815 3.815a.756.756 0 010 1.069l-2.419 2.419a.469.469 0 00.662.663l2.419-2.419a1.697 1.697 0 00.224-2.119l2.955-2.955a3.073 3.073 0 001.931.675c.828 0 1.606-.322 2.192-.908l5.69-5.689 2.039 2.039-5.827 5.827-1.216-1.216a.469.469 0 00-.663.663l1.242 1.242a1.682 1.682 0 00-.272.922c0 .452.176.878.496 1.198l2.419 2.419a.469.469 0 00.663-.663l-2.419-2.419a.755.755 0 010-1.07l6.653-6.653a.752.752 0 011.07 0l2.419 2.419a.469.469 0 00.663-.663zM11.944 3.849a.948.948 0 01.622-.278l-.024.029a1.004 1.004 0 00-.186.757l.081.512a2.559 2.559 0 001.183 1.784.943.943 0 01-.491-.263L11.94 5.202a.96.96 0 01.002-1.353zM8.48 12.494a.958.958 0 01-1.355 0l-.739-.738A.96.96 0 017.74 10.4l.739.739c.181.181.281.422.281.678s-.1.497-.281.678zm2.37-1.666c-.181.181-.422.281-.678.281s-.497-.1-.678-.281l-1.09-1.091-.002-.002-.33-.33A.96.96 0 019.427 8.05l1.422 1.422a.96.96 0 010 1.355zm2.511-1.525c-.181.181-.422.281-.678.281s-.497-.1-.678-.281l-.492-.492-1.422-1.422-.002-.002-.44-.44a.958.958 0 011.355-1.355l.271.271.005.005 2.08 2.08a.958.958 0 010 1.355zm4.125-4.572l-1.164 1.164-1.059.185c-.436.076-.874-.024-1.234-.281s-.596-.64-.666-1.077l-.081-.512c-.004-.024.005-.042.013-.053s.023-.024.047-.028l3.622-.505a.598.598 0 01.609.312l.244.464-.33.33z"/></symbol><symbol id="icon-peace" viewBox="0 0 32 32"><path d="M22.174 14.269a2.357 2.357 0 00-3.814-1.458c1.857-10.13 1.731-9.353 1.731-9.663a2.623 2.623 0 00-5.198-.525l-1.296 8.289-1.574-7.134a2.621 2.621 0 00-4.34-1.641 2.622 2.622 0 00-.811 2.585l1.778 9.6c.378 2.014-.577 3.09-1.469 5.687a6.565 6.565 0 00.902 6.017l2.623 3.62c.26.383.37.848.309 1.306 0 .579.47 1.049 1.049 1.049h8.918a1.05 1.05 0 001.049-1.049c0-1.144-.215-.64 2.02-4.449a10.486 10.486 0 001.128-4.47v-4.092l.142-.22a2.408 2.408 0 00-3.148-3.452zm1.149.755a1.37 1.37 0 011.107 2.14l-2.397 3.819a1.369 1.369 0 01-2.528-.325 1.442 1.442 0 01.189-1.096c2.927-4.721 2.067-3.305 2.408-3.851a1.472 1.472 0 011.222-.687zm-2.151-.278a2.1 2.1 0 01-.446 1.175s-2.366 3.767-2.366 3.793c-.86 1.374-2.791.792-2.586-.829a3.147 3.147 0 003.111-3.148v-.525a1.05 1.05 0 00-.462-.866l.142-.226c.808-1.29 2.623-.871 2.607.624zm-6.337 5.188h-.671a.525.525 0 110-1.05h.551c-.035.354.007.712.121 1.049zM7.9 4.543a1.585 1.585 0 012.094-1.771c.532.191.922.652 1.022 1.209l1.873 8.519a.793.793 0 001.548-.048l1.49-9.631c.086-.407.329-.763.677-.991a1.573 1.573 0 012.439 1.316c0 .178.115-.525-1.978 11.016h-3.504a3.635 3.635 0 00-2.193.729c-.606.449-1.179.939-1.715 1.469.151-.724.16-1.471.026-2.198zm16.231 17.49a9.5 9.5 0 01-.981 3.94c-2.303 3.929-2.167 3.551-2.167 4.978h-8.918a2.809 2.809 0 00-.525-1.91l-2.623-3.62a5.544 5.544 0 01-.971-4.27c.446-2.14 2.292-4.113 4.045-5.414a2.62 2.62 0 011.574-.525h4.27v.525a2.098 2.098 0 01-2.098 2.098h-1.574a1.574 1.574 0 000 3.148h.74a2.098 2.098 0 011.925 1.259.524.524 0 10.96-.419 3.045 3.045 0 00-.189-.357c.329-.079.639-.221.913-.42a2.411 2.411 0 004.396.524l1.222-1.962z"/></symbol><symbol id="icon-money" viewBox="0 0 32 32"><path d="M21.372 20.522c-.758 0-1.375-.534-1.375-1.19s.617-1.19 1.375-1.19 1.375.534 1.375 1.19a.625.625 0 001.25 0c0-1.145-.853-2.108-2-2.37v-.325a.625.625 0 00-1.25 0v.325c-1.147.261-2 1.224-2 2.37 0 1.345 1.178 2.44 2.625 2.44.758 0 1.375.534 1.375 1.19s-.617 1.19-1.375 1.19-1.375-.534-1.375-1.19a.625.625 0 00-1.25 0c0 1.145.853 2.108 2 2.37v.27a.625.625 0 001.25 0v-.27c1.147-.261 2-1.224 2-2.37 0-1.346-1.178-2.44-2.625-2.44zm6.846-3.717a8.148 8.148 0 00-3.326-2.944.624.624 0 10-.541 1.127 6.917 6.917 0 013.9 6.2 6.888 6.888 0 01-.801 3.224.624.624 0 101.103.586 8.141 8.141 0 00-.334-8.195zm-5.863-3.742h-.042a.625.625 0 000 1.25h.039a.625.625 0 00.003-1.25zM18.4 27.388a6.917 6.917 0 01-3.9-6.2c0-1.124.277-2.239.801-3.224a.624.624 0 10-1.103-.587 8.141 8.141 0 00.334 8.195 8.148 8.148 0 003.326 2.944.622.622 0 00.834-.292.625.625 0 00-.293-.834zm2.038.675h-.036a.625.625 0 10-.006 1.25h.042a.625.625 0 000-1.25z"/><path d="M24.213 10.948a2.863 2.863 0 00-.278-.511h1.627c1.585 0 2.875-1.29 2.875-2.875s-1.29-2.875-2.875-2.875h-5.005a2.86 2.86 0 00.505-1.625A2.879 2.879 0 0018.187.187H2.875C1.29.187 0 1.477 0 3.062s1.29 2.875 2.875 2.875H7.88c-.318.463-.505 1.022-.505 1.625s.187 1.162.505 1.625H6.25a2.872 2.872 0 00-1.787 5.125 2.87 2.87 0 000 4.5 2.87 2.87 0 000 4.5 2.87 2.87 0 00-1.088 2.25 2.879 2.879 0 002.875 2.875h7.366a10.598 10.598 0 007.759 3.375C27.234 31.812 32 27.046 32 21.187c0-4.876-3.302-8.995-7.787-10.24zm1.349-5.01c.896 0 1.625.729 1.625 1.625s-.729 1.625-1.625 1.625H10.25c-.896 0-1.625-.729-1.625-1.625s.729-1.625 1.625-1.625h15.312zM2.875 4.688c-.896 0-1.625-.729-1.625-1.625s.729-1.625 1.625-1.625h15.312c.896 0 1.625.729 1.625 1.625s-.729 1.625-1.625 1.625H2.875zm3.375 5.749h15.312c.252 0 .493.059.709.163a10.595 10.595 0 00-8.415 3.087H6.25c-.896 0-1.625-.729-1.625-1.625s.729-1.625 1.625-1.625zm0 4.5h6.538a10.569 10.569 0 00-1.606 3.25H6.25c-.896 0-1.625-.729-1.625-1.625s.729-1.625 1.625-1.625zm0 4.5h4.645a10.633 10.633 0 00-.039 3.25H6.25c-.896 0-1.625-.729-1.625-1.625s.729-1.625 1.625-1.625zm0 7.75c-.896 0-1.625-.729-1.625-1.625s.729-1.625 1.625-1.625h4.862a10.566 10.566 0 001.5 3.25H6.251zm15.125 3.376c-5.169 0-9.375-4.206-9.375-9.375s4.206-9.375 9.375-9.375 9.375 4.206 9.375 9.375-4.206 9.375-9.375 9.375z"/></symbol><symbol id="icon-idea" viewBox="0 0 32 32"><path d="M16 24.405a.625.625 0 00-.625.625v.05a.625.625 0 001.25 0v-.05a.625.625 0 00-.625-.625z"/><path d="M16 4.236c-4.962 0-8.999 4.037-8.999 9 0 1.568.41 3.112 1.184 4.465a9.057 9.057 0 003.119 3.213 3.4 3.4 0 01.723.57v7.867c0 1.56.805 2.649 1.959 2.649h4.028c1.153 0 1.959-1.09 1.959-2.649v-7.867c.184-.197.421-.385.723-.57a8.995 8.995 0 004.303-7.678c0-4.962-4.037-9-8.999-9zm2.722 25.115c0 .811-.298 1.399-.709 1.399h-4.028c-.411 0-.709-.588-.709-1.399v-.689h5.445v.689zm0-1.939h-5.445V16.388c.29-.212.717-.151.967-.088.682.173 1.105.606 1.13.744v6.299a.625.625 0 001.25 0v-6.298c.031-.144.453-.573 1.13-.744.25-.064.677-.124.967.088v11.024zm-4.807-12.418L16 10.791l2.085 4.203c-.268.011-.549.06-.838.152a3.519 3.519 0 00-1.247.698 3.528 3.528 0 00-1.247-.698 3.195 3.195 0 00-.838-.152zm6.128 4.854l-.07.045v-3.761l-.001-.015a.34.34 0 00-.003-.045l-.003-.023-.008-.047-.004-.019a.597.597 0 00-.017-.056l-.003-.009a.721.721 0 00-.027-.064v-.001L16.56 9.106a.624.624 0 00-1.12 0l-3.347 6.746a.654.654 0 00-.048.132l-.003.013a.507.507 0 00-.009.054l-.002.017a.436.436 0 00-.003.051l-.001.011v3.761l-.07-.045a7.705 7.705 0 01-3.707-6.613c0-4.273 3.476-7.75 7.749-7.75s7.75 3.476 7.75 7.75a7.706 7.706 0 01-3.707 6.613z"/><path d="M20.933 8.261a.625.625 0 00-.88.888 5.714 5.714 0 011.702 4.086 5.75 5.75 0 01-.259 1.71.625.625 0 101.194.37 7.009 7.009 0 00.315-2.081 6.958 6.958 0 00-2.072-4.974zm-1.707-1.245l-.035-.018a.625.625 0 10-.577 1.109l.035.018a.622.622 0 00.843-.265.624.624 0 00-.266-.843zm-7.855-3.205l-1.057-1.83a.626.626 0 00-1.083.625l1.057 1.83a.625.625 0 101.083-.625zM7.308 7.339L5.526 6.311a.625.625 0 10-.625 1.083l1.782 1.028a.625.625 0 10.625-1.083zM22.54 1.752a.625.625 0 00-.854.229l-1.057 1.83a.625.625 0 101.083.625l1.057-1.83a.625.625 0 00-.229-.854zM5.527 12.454H3.546a.625.625 0 000 1.25h1.981a.625.625 0 000-1.25zM16 0a.625.625 0 00-.625.625V2.76a.625.625 0 001.25 0V.625A.625.625 0 0016 0zm11.327 6.54a.626.626 0 00-.854-.229l-1.782 1.028a.626.626 0 00.625 1.083l1.782-1.028a.626.626 0 00.229-.854zm1.127 5.914h-1.981a.625.625 0 000 1.25h1.981a.625.625 0 000-1.25zm-1.356 6.311l-1.646-.95a.625.625 0 10-.625 1.083l1.646.95a.625.625 0 10.625-1.083zm-16.094 2.967a.625.625 0 00-.854.229l-.919 1.591a.625.625 0 101.083.625l.919-1.591a.625.625 0 00-.229-.854zm-3.603-3.689a.626.626 0 00-.854-.229l-1.646.95a.626.626 0 00.625 1.083l1.646-.95a.626.626 0 00.229-.854zm15.367 5.509l-.919-1.591a.626.626 0 00-1.083.625l.919 1.591a.625.625 0 101.083-.625z"/></symbol><symbol id="icon-docs" viewBox="0 0 32 32"><path d="M25.59 17.089h-1.233V2.2a2.265 2.265 0 00-2.263-2.263h-11.36c-.907 0-1.679.388-2.209.98-3.128 3.59-3.843 4.043-4.008 4.888-.249.801-.087-.208-.135 23.869a2.265 2.265 0 002.263 2.263h15.449a2.265 2.265 0 002.263-2.263v-1.225h.935a2.443 2.443 0 002.44-2.44V19.23a2.145 2.145 0 00-2.142-2.142zM9.767 1.488v2.417c0 .769-.626 1.395-1.395 1.395H6.289c3.354-3.721 3.172-3.602 3.478-3.812zm13.341 28.187c0 .558-.454 1.013-1.013 1.013H6.646a1.014 1.014 0 01-1.013-1.013c.002-24.032-.005-22.986.006-23.125h2.733a2.649 2.649 0 002.645-2.645V1.187h11.078c.559 0 1.013.454 1.013 1.013v18.227h-7.295c-.806 0-1.462.656-1.462 1.462v5.098c0 .806.656 1.462 1.462 1.462h7.295zm3.375-3.665c0 .656-.534 1.19-1.19 1.19h-9.48a.212.212 0 01-.212-.212V21.89c0-.117.095-.212.212-.212 10.66 0 10.035.083 10.67-.233zm0-6.579c0 .55-.447.996-.996.996h-1.129v-2.089h1.233c.492 0 .892.4.892.893z"/><path d="M20.021 10.534h-.002a.624.624 0 10.002 0zm-11.439 1.25h8.938a.625.625 0 000-1.25H8.582a.625.625 0 000 1.25zm0 3.498H20.02a.625.625 0 000-1.25H8.582a.625.625 0 000 1.25zm12.064 2.872a.625.625 0 00-.625-.625H8.583a.625.625 0 000 1.25h11.438c.345 0 .625-.28.625-.625z"/></symbol><symbol id="icon-target" viewBox="0 0 32 32"><path d="M19.555 8.961a.623.623 0 00.884 0 .625.625 0 000-.884l-.008-.008a.625.625 0 00-.884.884l.009.008z"/><path d="M29.639 14.875l2.178-2.178a.624.624 0 00-.442-1.067h-4.516a13.575 13.575 0 00-3.6-6.389c-2.573-2.573-5.995-3.991-9.634-3.991S6.564 2.667 3.991 5.241C1.418 7.814 0 11.236 0 14.875s1.417 7.061 3.991 9.634a13.72 13.72 0 002.505 1.981l-1.883 3.327a.627.627 0 00.544.933h3.219a.625.625 0 00.544-.317l1.331-2.352c1.09.276 2.221.419 3.375.419s2.285-.143 3.375-.419l1.331 2.352a.625.625 0 00.544.317h3.219a.626.626 0 00.544-.933l-1.883-3.327a13.755 13.755 0 002.505-1.981 13.579 13.579 0 003.6-6.389h4.516a.627.627 0 00.442-1.067l-2.178-2.178zm-1.143-.625h-4.362l1.37-1.37h4.362l-1.37 1.37zM8.011 29.5H6.229l1.36-2.403c.467.231.946.436 1.437.611L8.011 29.5zm13.011 0H19.24l-1.015-1.792c.49-.175.97-.38 1.437-.611l1.36 2.403zm1.353-5.875a12.438 12.438 0 01-2.74 2.073l-.037.018-.022.014c-.761.419-1.564.755-2.396 1.004a12.432 12.432 0 01-3.555.516 12.427 12.427 0 01-3.555-.516 12.185 12.185 0 01-2.396-1.004l-.022-.014c-.012-.007-.024-.012-.037-.018a12.392 12.392 0 01-2.74-2.073c-2.337-2.337-3.625-5.445-3.625-8.75s1.287-6.413 3.625-8.75C7.212 3.788 10.32 2.5 13.625 2.5s6.413 1.287 8.75 3.625a12.339 12.339 0 013.194 5.505h-.324a.625.625 0 00-.442.183l-1.659 1.659a9.62 9.62 0 00-1.09-3.246.625.625 0 10-1.094.604 8.31 8.31 0 011.01 3.42h-2.756a5.581 5.581 0 00-1.612-3.352C16.54 9.835 15.127 9.25 13.625 9.25s-2.915.585-3.977 1.648C8.586 11.961 8 13.373 8 14.875s.585 2.915 1.647 3.977c1.062 1.062 2.475 1.648 3.978 1.648s2.915-.585 3.977-1.648a5.578 5.578 0 001.612-3.352h2.753a8.387 8.387 0 01-2.421 5.297c-1.582 1.582-3.685 2.453-5.922 2.453s-4.34-.871-5.922-2.453a8.32 8.32 0 01-2.453-5.922 8.32 8.32 0 012.453-5.922c2.624-2.624 6.723-3.205 9.967-1.414a.625.625 0 10.604-1.094 9.7 9.7 0 00-5.936-1.109 9.542 9.542 0 00-5.52 2.733c-1.818 1.818-2.819 4.235-2.819 6.806s1.001 4.988 2.819 6.806c1.818 1.818 4.235 2.819 6.806 2.819s4.988-1.001 6.806-2.819a9.537 9.537 0 002.716-5.4l1.657 1.657a.625.625 0 00.442.183h.323a12.332 12.332 0 01-3.193 5.505zm-6.709-9.928a.626.626 0 00-.854-.229l-1.5.866a.623.623 0 000 1.082l1.5.866a.625.625 0 00.889-.782h2.255a4.345 4.345 0 01-1.237 2.469c-.826.826-1.925 1.281-3.094 1.281s-2.267-.455-3.094-1.281c-.826-.826-1.281-1.925-1.281-3.094s.455-2.267 1.281-3.094c.826-.826 1.925-1.281 3.094-1.281s2.267.455 3.094 1.281a4.345 4.345 0 011.237 2.469h-2.255a.622.622 0 00-.035-.553zm9.838 3.173l-1.37-1.37h4.362l1.37 1.37h-4.362z"/></symbol><symbol id="icon-circle" viewBox="0 0 32 32"><path d="M24.221 12.069a7.925 7.925 0 11-14.64 6.068 7.925 7.925 0 0114.64-6.068zm2.413-4.528c1.502 0 2.725-1.222 2.725-2.725s-1.222-2.725-2.725-2.725-2.725 1.222-2.725 2.725 1.222 2.725 2.725 2.725zM8.912 4.553a13.11 13.11 0 017.981-2.678c2.104 0 4.116.48 5.98 1.426l.849-1.672A14.946 14.946 0 0016.893 0a14.972 14.972 0 00-9.114 3.059A15.229 15.229 0 002.41 10.8l1.798.534a13.33 13.33 0 014.703-6.78z"/><path d="M29.975 7.548l-1.623.94a13.228 13.228 0 011.772 6.619 13.11 13.11 0 01-2.678 7.981 13.339 13.339 0 01-6.78 4.703l.534 1.798a15.219 15.219 0 007.741-5.369A14.972 14.972 0 0032 15.106c0-2.657-.7-5.27-2.025-7.558zM4.209 18.879l-1.798.534a15.139 15.139 0 0010.176 10.176l.534-1.798A13.259 13.259 0 014.21 18.88zm12.684 7.672c-1.502 0-2.725 1.222-2.725 2.725s1.222 2.725 2.725 2.725 2.725-1.222 2.725-2.725-1.222-2.725-2.725-2.725zM5.449 15.107a2.725 2.725 0 11-5.45 0 2.725 2.725 0 015.45 0z"/></symbol><symbol id="icon-facebook" viewBox="0 0 32 32"><path fill="var(--color2, #3b5998)" d="M32 16c0 8.837-7.163 16-16 16S0 24.837 0 16 7.163 0 16 0s16 7.163 16 16z"/><path fill="var(--color1, #fff)" d="M20.022 16.626h-2.855v10.459h-4.326V16.626h-2.057V12.95h2.057v-2.379c0-1.701.808-4.365 4.364-4.365l3.204.013v3.568h-2.325c-.381 0-.918.191-.918 1.002v2.163h3.233l-.378 3.672z"/></symbol><symbol id="icon-telegram" viewBox="0 0 32 32"><path fill="var(--color3, #039be5)" d="M32 16c0 8.837-7.163 16-16 16S0 24.837 0 16 7.163 0 16 0s16 7.163 16 16z"/><path fill="var(--color1, #fff)" d="M7.321 15.653l15.427-5.948c.716-.259 1.341.175 1.109 1.257l.001-.001-2.627 12.375c-.195.877-.716 1.091-1.445.677l-4-2.948-1.929 1.859c-.213.213-.393.393-.807.393l.284-4.071 7.413-6.697c.323-.284-.072-.444-.497-.161l-9.161 5.768-3.949-1.232c-.857-.272-.876-.857.181-1.271z"/></symbol><symbol id="icon-youtube" viewBox="0 0 32 32"><path fill="var(--color4, #d42428)" d="M32 16c0 8.837-7.163 16-16 16S0 24.837 0 16 7.163 0 16 0s16 7.163 16 16z"/><path fill="var(--color5, #cc202d)" d="M27.313 4.685c6.248 6.249 6.249 16.38 0 22.629s-16.38 6.249-22.629 0L27.313 4.685z"/><path fill="var(--color6, #ba202e)" d="M31.678 19.205l-7.919-7.919-9.34 1.063-5.649 8.746 10.556 10.556a16.02 16.02 0 0012.352-12.447z"/><path fill="var(--color1, #fff)" d="M24.373 12.912a2.428 2.428 0 00-2.427-2.428H10.559a2.428 2.428 0 00-2.427 2.428v6.512a2.428 2.428 0 002.427 2.428h11.387a2.427 2.427 0 002.427-2.428v-6.512zm-9.745 6.004V12.8l4.638 3.058-4.638 3.058z"/></symbol></defs></svg>