<svg xmlns="http://www.w3.org/2000/svg" width="32" height="32"><path d="M19.555 8.961a.623.623 0 00.884 0 .625.625 0 000-.884l-.008-.008a.625.625 0 00-.884.884l.009.008z"/><path d="M29.639 14.875l2.178-2.178a.624.624 0 00-.442-1.067h-4.516a13.575 13.575 0 00-3.6-6.389c-2.573-2.573-5.995-3.991-9.634-3.991S6.564 2.667 3.991 5.241C1.418 7.814 0 11.236 0 14.875s1.417 7.061 3.991 9.634a13.72 13.72 0 002.505 1.981l-1.883 3.327a.627.627 0 00.544.933h3.219a.625.625 0 00.544-.317l1.331-2.352c1.09.276 2.221.419 3.375.419s2.285-.143 3.375-.419l1.331 2.352a.625.625 0 00.544.317h3.219a.626.626 0 00.544-.933l-1.883-3.327a13.755 13.755 0 002.505-1.981 13.579 13.579 0 003.6-6.389h4.516a.627.627 0 00.442-1.067l-2.178-2.178zm-1.143-.625h-4.362l1.37-1.37h4.362l-1.37 1.37zM8.011 29.5H6.229l1.36-2.403c.467.231.946.436 1.437.611L8.011 29.5zm13.011 0H19.24l-1.015-1.792c.49-.175.97-.38 1.437-.611l1.36 2.403zm1.353-5.875a12.438 12.438 0 01-2.74 2.073l-.037.018-.022.014c-.761.419-1.564.755-2.396 1.004a12.432 12.432 0 01-3.555.516 12.427 12.427 0 01-3.555-.516 12.185 12.185 0 01-2.396-1.004l-.022-.014c-.012-.007-.024-.012-.037-.018a12.392 12.392 0 01-2.74-2.073c-2.337-2.337-3.625-5.445-3.625-8.75s1.287-6.413 3.625-8.75C7.212 3.788 10.32 2.5 13.625 2.5s6.413 1.287 8.75 3.625a12.339 12.339 0 013.194 5.505h-.324a.625.625 0 00-.442.183l-1.659 1.659a9.62 9.62 0 00-1.09-3.246.625.625 0 10-1.094.604 8.31 8.31 0 011.01 3.42h-2.756a5.581 5.581 0 00-1.612-3.352C16.54 9.835 15.127 9.25 13.625 9.25s-2.915.585-3.977 1.648C8.586 11.961 8 13.373 8 14.875s.585 2.915 1.647 3.977c1.062 1.062 2.475 1.648 3.978 1.648s2.915-.585 3.977-1.648a5.578 5.578 0 001.612-3.352h2.753a8.387 8.387 0 01-2.421 5.297c-1.582 1.582-3.685 2.453-5.922 2.453s-4.34-.871-5.922-2.453a8.32 8.32 0 01-2.453-5.922 8.32 8.32 0 012.453-5.922c2.624-2.624 6.723-3.205 9.967-1.414a.625.625 0 10.604-1.094 9.7 9.7 0 00-5.936-1.109 9.542 9.542 0 00-5.52 2.733c-1.818 1.818-2.819 4.235-2.819 6.806s1.001 4.988 2.819 6.806c1.818 1.818 4.235 2.819 6.806 2.819s4.988-1.001 6.806-2.819a9.537 9.537 0 002.716-5.4l1.657 1.657a.625.625 0 00.442.183h.323a12.332 12.332 0 01-3.193 5.505zm-6.709-9.928a.626.626 0 00-.854-.229l-1.5.866a.623.623 0 000 1.082l1.5.866a.625.625 0 00.889-.782h2.255a4.345 4.345 0 01-1.237 2.469c-.826.826-1.925 1.281-3.094 1.281s-2.267-.455-3.094-1.281c-.826-.826-1.281-1.925-1.281-3.094s.455-2.267 1.281-3.094c.826-.826 1.925-1.281 3.094-1.281s2.267.455 3.094 1.281a4.345 4.345 0 011.237 2.469h-2.255a.622.622 0 00-.035-.553zm9.838 3.173l-1.37-1.37h4.362l1.37 1.37h-4.362z"/></svg>