<svg xmlns="http://www.w3.org/2000/svg" width="32" height="32"><path d="M16 0C7.164 0 0 7.164 0 16s7.164 16 16 16 16-7.164 16-16C31.99 7.168 24.832.01 16 0zm13.838 21.605l-4.55.785c.521-1.91.802-3.878.837-5.857h4.795a14.85 14.85 0 01-1.082 5.072zM1.08 16.533h4.795c.035 1.979.316 3.947.837 5.857l-4.55-.785a14.826 14.826 0 01-1.082-5.072zm1.082-6.138l4.55-.785a23.863 23.863 0 00-.837 5.857H1.08a14.85 14.85 0 011.082-5.072zm14.371-1.832c1.916.024 3.828.199 5.717.522l1.883.325c.578 1.968.89 4.005.925 6.056h-8.525zm5.9-.529a37.753 37.753 0 00-5.899-.537v-6.4c3.058.294 5.714 3.093 7.219 7.167zm-6.966-.537a37.764 37.764 0 00-5.899.537l-1.32.228c1.505-4.075 4.161-6.876 7.219-7.168zM9.75 9.085a36.648 36.648 0 015.717-.522v6.903H6.942c.036-2.051.347-4.088.925-6.056zm-2.809 7.448h8.525v6.903a36.648 36.648 0 01-5.717-.522l-1.883-.325a22.878 22.878 0 01-.925-6.056zm2.626 7.433c1.949.334 3.922.514 5.899.54v6.4c-3.058-.294-5.714-3.093-7.219-7.168zm6.966.54a38.011 38.011 0 005.899-.54l1.32-.228c-1.505 4.075-4.161 6.876-7.219 7.168zm5.717-1.591a36.648 36.648 0 01-5.717.522v-6.903h8.525a22.918 22.918 0 01-.925 6.056zm3.875-7.448a23.863 23.863 0 00-.837-5.857l4.55.785a14.826 14.826 0 011.082 5.072zm3.173-6.248l-4.362-.753a14.706 14.706 0 00-4.243-6.64 15.002 15.002 0 018.605 7.393zM11.307 1.827a14.706 14.706 0 00-4.243 6.64l-4.362.753a15.006 15.006 0 018.605-7.393zM2.702 22.781l4.362.753a14.706 14.706 0 004.243 6.64 15.002 15.002 0 01-8.605-7.393zm17.991 7.392a14.706 14.706 0 004.243-6.64l4.362-.753a15.006 15.006 0 01-8.605 7.393z"/></svg>