<svg xmlns="http://www.w3.org/2000/svg" width="32" height="32"><path fill="#d42428" d="M32 16c0 8.837-7.163 16-16 16S0 24.837 0 16 7.163 0 16 0s16 7.163 16 16z"/><path fill="#cc202d" d="M27.313 4.685c6.248 6.249 6.249 16.38 0 22.629s-16.38 6.249-22.629 0L27.313 4.685z"/><path fill="#ba202e" d="M31.678 19.205l-7.919-7.919-9.34 1.063-5.649 8.746 10.556 10.556a16.02 16.02 0 0012.352-12.447z"/><path fill="#fff" d="M24.373 12.912a2.428 2.428 0 00-2.427-2.428H10.559a2.428 2.428 0 00-2.427 2.428v6.512a2.428 2.428 0 002.427 2.428h11.387a2.427 2.427 0 002.427-2.428v-6.512zm-9.745 6.004V12.8l4.638 3.058-4.638 3.058z"/></svg>