<!-- Generated by IcoMoon.io -->
<svg version="1.1" xmlns="http://www.w3.org/2000/svg" width="32" height="32" viewBox="0 0 32 32">
<title>circle</title>
<path d="M24.221 12.069c1.676 4.043-0.243 8.68-4.286 10.355s-8.68-0.243-10.355-4.286c-1.676-4.043 0.243-8.68 4.286-10.355s8.68 0.243 10.355 4.286z"></path>
<path d="M26.634 7.541c1.502 0 2.725-1.222 2.725-2.725s-1.222-2.725-2.725-2.725-2.725 1.222-2.725 2.725 1.222 2.725 2.725 2.725z"></path>
<path d="M8.912 4.553c2.312-1.752 5.072-2.678 7.981-2.678 2.104 0 4.116 0.48 5.98 1.426l0.849-1.672c-2.129-1.081-4.427-1.629-6.829-1.629-3.322 0-6.473 1.058-9.114 3.059-2.554 1.935-4.461 4.685-5.369 7.741l1.798 0.534c0.795-2.677 2.465-5.085 4.703-6.78z"></path>
<path d="M29.975 7.548l-1.623 0.94c1.159 2.003 1.772 4.291 1.772 6.619 0 2.909-0.926 5.669-2.678 7.981-1.696 2.238-4.104 3.908-6.78 4.703l0.534 1.798c3.057-0.908 5.806-2.814 7.741-5.369 2.001-2.641 3.059-5.792 3.059-9.114 0-2.657-0.7-5.27-2.025-7.558z"></path>
<path d="M4.209 18.879l-1.798 0.534c0.711 2.395 2.025 4.599 3.801 6.375s3.98 3.090 6.375 3.801l0.534-1.798c-2.096-0.623-4.027-1.774-5.582-3.329s-2.707-3.486-3.329-5.582z"></path>
<path d="M16.893 26.551c-1.502 0-2.725 1.222-2.725 2.725s1.222 2.725 2.725 2.725 2.725-1.222 2.725-2.725-1.222-2.725-2.725-2.725z"></path>
<path d="M5.449 15.107c0 1.505-1.22 2.725-2.725 2.725s-2.725-1.22-2.725-2.725c0-1.505 1.22-2.725 2.725-2.725s2.725 1.22 2.725 2.725z"></path>
</svg>
