<!-- Generated by IcoMoon.io -->
<svg version="1.1" xmlns="http://www.w3.org/2000/svg" width="32" height="32" viewBox="0 0 32 32">
<title>docs</title>
<path d="M25.59 17.089h-1.233v-14.889c0-1.248-1.015-2.263-2.263-2.263h-11.36c-0.907 0-1.679 0.388-2.209 0.98-3.128 3.59-3.843 4.043-4.008 4.888-0.249 0.801-0.087-0.208-0.135 23.869 0 1.248 1.015 2.263 2.263 2.263h15.449c1.248 0 2.263-1.015 2.263-2.263v-1.225h0.935c1.345 0 2.44-1.095 2.44-2.44 0-2.335 0-4.953 0-6.779 0-1.181-0.961-2.142-2.142-2.142zM9.767 1.488v2.417c0 0.769-0.626 1.395-1.395 1.395h-2.083c3.354-3.721 3.172-3.602 3.478-3.812zM23.108 29.675c0 0.558-0.454 1.013-1.013 1.013h-15.449c-0.558 0-1.013-0.454-1.013-1.013 0.002-24.032-0.005-22.986 0.006-23.125h2.733c1.458 0 2.645-1.187 2.645-2.645v-2.718h11.078c0.559 0 1.013 0.454 1.013 1.013v18.227h-7.295c-0.806 0-1.462 0.656-1.462 1.462v5.098c0 0.806 0.656 1.462 1.462 1.462h7.295zM26.483 26.010c0 0.656-0.534 1.19-1.19 1.19-1.458 0-8.122 0-9.48 0-0.117 0-0.212-0.095-0.212-0.212v-5.098c0-0.117 0.095-0.212 0.212-0.212 10.66 0 10.035 0.083 10.67-0.233zM26.483 19.431c0 0.55-0.447 0.996-0.996 0.996h-1.129v-2.089h1.233c0.492 0 0.892 0.4 0.892 0.893z"></path>
<path d="M20.021 10.534h-0.002c-0.345 0-0.624 0.28-0.624 0.625s0.281 0.625 0.626 0.625 0.625-0.28 0.625-0.625c0-0.345-0.28-0.625-0.625-0.625z"></path>
<path d="M8.582 11.784h8.938c0.345 0 0.625-0.28 0.625-0.625s-0.28-0.625-0.625-0.625h-8.938c-0.345 0-0.625 0.28-0.625 0.625s0.28 0.625 0.625 0.625z"></path>
<path d="M8.582 15.282h11.438c0.345 0 0.625-0.28 0.625-0.625s-0.28-0.625-0.625-0.625h-11.438c-0.345 0-0.625 0.28-0.625 0.625s0.28 0.625 0.625 0.625z"></path>
<path d="M20.646 18.154c0-0.345-0.28-0.625-0.625-0.625h-11.438c-0.345 0-0.625 0.28-0.625 0.625s0.28 0.625 0.625 0.625h11.438c0.345 0 0.625-0.28 0.625-0.625z"></path>
</svg>
