<!-- Generated by IcoMoon.io -->
<svg version="1.1" xmlns="http://www.w3.org/2000/svg" width="32" height="32" viewBox="0 0 32 32">
<title>handshake</title>
<path d="M31.863 19.862l-2.419-2.419c-0.32-0.32-0.745-0.496-1.198-0.496-0.332 0-0.649 0.095-0.921 0.272l-2.065-2.065 0.716-0.716c0.763-0.764 0.763-2.008-0-2.772-0.329-0.329-0.755-0.526-1.213-0.566 0.198-0.667 0.034-1.42-0.492-1.946-0.307-0.307-0.698-0.499-1.121-0.556 0.088-0.225 0.134-0.466 0.134-0.715 0-0.524-0.204-1.016-0.574-1.386-0.341-0.341-0.778-0.53-1.225-0.567 0.19-0.663 0.024-1.407-0.497-1.929-0.37-0.37-0.863-0.574-1.386-0.574-0.386 0-0.755 0.111-1.070 0.318l-0.129-0.245c-0.3-0.57-0.929-0.893-1.567-0.804l-2.955 0.412c-0.347-0.309-0.789-0.478-1.258-0.478-0.506 0-0.983 0.197-1.341 0.556-0.341 0.341-0.524 0.782-0.55 1.23-0.131-0.028-0.266-0.043-0.403-0.043-0.506 0-0.982 0.197-1.341 0.555v0c-0.518 0.519-0.673 1.265-0.464 1.92-0.407 0.049-0.801 0.229-1.113 0.54 0 0 0 0 0 0-0.487 0.487-0.653 1.177-0.498 1.802-0.434 0.034-0.858 0.217-1.189 0.548v0c-0.739 0.739-0.739 1.942 0 2.681l0.739 0.739c0.081 0.081 0.169 0.153 0.26 0.217 0.082 0.543 0.298 1.057 0.626 1.495l-2.672 2.673c-0.656-0.425-1.544-0.351-2.119 0.224l-2.419 2.419c-0.296 0.296-0.082 0.8 0.331 0.8 0.12 0 0.24-0.046 0.331-0.137l2.419-2.419c0.295-0.295 0.775-0.295 1.069 0l1.505 1.505c0.183 0.183 0.48 0.183 0.663 0s0.183-0.48 0-0.663l-1.092-1.092 2.954-2.954c0.183-0.183 0.183-0.48 0-0.663-0.242-0.242-0.427-0.533-0.546-0.85 0.010 0 0.020 0.001 0.029 0.001 0.485 0 0.971-0.185 1.341-0.554 0.318-0.318 0.509-0.73 0.548-1.173 0.155 0.041 0.317 0.062 0.482 0.062 0.506 0 0.982-0.197 1.341-0.555 0.303-0.303 0.481-0.684 0.536-1.078 0.201 0.071 0.415 0.108 0.634 0.108 0.506 0 0.982-0.197 1.341-0.555 0.654-0.654 0.729-1.671 0.225-2.409 0.338-0.080 0.647-0.252 0.899-0.504 0.006-0.006 0.011-0.012 0.017-0.018 0.086-0.006 0.173-0.016 0.259-0.032l1.086-0.19c0.134 0.006 0.266-0.044 0.361-0.142l0.009-0.008c0-0 0-0 0-0l1.843-1.843c0.005-0.005 0.009-0.010 0.014-0.014l0.141-0.141c0.193-0.193 0.45-0.3 0.723-0.3s0.53 0.106 0.723 0.299c0.398 0.399 0.399 1.048 0 1.446l-0.387 0.387c-0.183 0.183-0.183 0.48 0 0.663s0.48 0.183 0.663 0l0.002-0.002c0.399-0.397 1.046-0.396 1.444 0.002 0.193 0.193 0.299 0.449 0.299 0.723s-0.106 0.53-0.3 0.723l-0.545 0.545c-0.001 0.001-0.002 0.002-0.003 0.003-0.183 0.183-0.183 0.48 0.001 0.663s0.48 0.183 0.663-0l0.002-0.002c0.192-0.192 0.448-0.297 0.721-0.297s0.53 0.106 0.723 0.299c0.398 0.399 0.399 1.048 0 1.446l-0.403 0.403c-0.183 0.183-0.183 0.48-0 0.663s0.48 0.183 0.663 0.001c0.193-0.193 0.45-0.299 0.723-0.299s0.53 0.106 0.723 0.299c0.398 0.399 0.398 1.048 0 1.447l-1.042 1.042c-0.002 0.002-0.004 0.003-0.005 0.005s-0.003 0.004-0.005 0.005l-6.016 6.016c-0.408 0.408-0.951 0.633-1.529 0.633s-1.12-0.225-1.528-0.633l-0.085-0.085c-0.183-0.183-0.48-0.183-0.663 0l-3.247 3.247-3.402-3.402c-0.183-0.183-0.48-0.183-0.663 0s-0.183 0.48 0 0.663l3.815 3.815c0.295 0.295 0.295 0.775 0 1.069l-2.419 2.419c-0.183 0.183-0.183 0.48 0 0.663 0.091 0.091 0.211 0.137 0.331 0.137s0.24-0.046 0.331-0.137l2.419-2.419c0.575-0.575 0.649-1.463 0.224-2.119l2.955-2.955c0.547 0.438 1.221 0.675 1.931 0.675 0.828 0 1.606-0.322 2.192-0.908l5.69-5.689 2.039 2.039-5.827 5.827-1.216-1.216c-0.183-0.183-0.48-0.183-0.663 0s-0.183 0.48 0 0.663l1.242 1.242c-0.177 0.272-0.272 0.589-0.272 0.922 0 0.452 0.176 0.878 0.496 1.198l2.419 2.419c0.183 0.183 0.48 0.183 0.663 0s0.183-0.48 0-0.663l-2.419-2.419c-0.143-0.143-0.221-0.333-0.221-0.535s0.079-0.392 0.221-0.535l6.653-6.653c0.143-0.143 0.333-0.222 0.535-0.222s0.392 0.079 0.535 0.222l2.419 2.419c0.183 0.183 0.48 0.183 0.663 0s0.183-0.48-0-0.663zM11.944 3.849c0.168-0.168 0.387-0.265 0.622-0.278-0.008 0.010-0.016 0.019-0.024 0.029-0.162 0.219-0.228 0.488-0.186 0.757l0.081 0.512c0.109 0.687 0.48 1.288 1.046 1.693 0.045 0.032 0.091 0.062 0.137 0.091-0.185-0.036-0.355-0.126-0.491-0.263l-1.189-1.188c-0.371-0.374-0.37-0.98 0.002-1.353zM8.48 12.494c-0.374 0.374-0.982 0.374-1.355 0l-0.739-0.738c-0.374-0.374-0.374-0.982 0-1.355v0c0.373-0.373 0.981-0.374 1.354-0.001l0.739 0.739c0.181 0.181 0.281 0.422 0.281 0.678s-0.1 0.497-0.281 0.678zM10.85 10.828c-0.181 0.181-0.422 0.281-0.678 0.281s-0.497-0.1-0.678-0.281l-1.090-1.091c-0.001-0.001-0.001-0.001-0.002-0.002l-0.33-0.33c-0.374-0.374-0.374-0.982 0-1.355v0c0.373-0.373 0.981-0.374 1.355-0l1.422 1.422c0.373 0.374 0.373 0.982-0 1.355zM13.361 9.303c-0.181 0.181-0.422 0.281-0.678 0.281s-0.497-0.1-0.678-0.281l-0.492-0.492c-0-0-0-0-0-0l-1.422-1.422c-0.001-0.001-0.001-0.001-0.002-0.002l-0.44-0.44c-0.374-0.374-0.374-0.982 0-1.355v0c0.374-0.374 0.982-0.374 1.355 0l0.271 0.271c0.002 0.002 0.003 0.003 0.005 0.005l2.080 2.080c0.374 0.374 0.374 0.982 0 1.355zM17.486 4.731l-1.164 1.164-1.059 0.185c-0.436 0.076-0.874-0.024-1.234-0.281s-0.596-0.64-0.666-1.077l-0.081-0.512c-0.004-0.024 0.005-0.042 0.013-0.053s0.023-0.024 0.047-0.028l3.622-0.505c0.027-0.004 0.055-0.006 0.082-0.006 0.218 0 0.423 0.121 0.527 0.318l0.244 0.464-0.33 0.33z"></path>
</svg>
