<!-- Generated by IcoMoon.io -->
<svg version="1.1" xmlns="http://www.w3.org/2000/svg" width="32" height="32" viewBox="0 0 32 32">
<title>idea</title>
<path d="M16 24.405c-0.345 0-0.625 0.28-0.625 0.625v0.050c0 0.345 0.28 0.625 0.625 0.625s0.625-0.28 0.625-0.625v-0.050c0-0.345-0.28-0.625-0.625-0.625z"></path>
<path d="M16 4.236c-4.962 0-8.999 4.037-8.999 9 0 1.568 0.41 3.112 1.184 4.465 0.751 1.312 1.83 2.423 3.119 3.213 0.302 0.185 0.54 0.373 0.723 0.57v7.867c0 1.56 0.805 2.649 1.959 2.649h4.028c1.153 0 1.959-1.090 1.959-2.649v-7.867c0.184-0.197 0.421-0.385 0.723-0.57 1.29-0.79 2.368-1.901 3.119-3.213 0.775-1.353 1.184-2.897 1.184-4.465 0-4.962-4.037-9-8.999-9zM18.722 29.351c0 0.811-0.298 1.399-0.709 1.399h-4.028c-0.411 0-0.709-0.588-0.709-1.399v-0.689h5.445v0.689zM18.722 27.412h-5.445v-11.024h-0c0.29-0.212 0.717-0.151 0.967-0.088 0.682 0.173 1.105 0.606 1.13 0.744l0 6.299c0 0.345 0.28 0.625 0.625 0.625s0.625-0.28 0.625-0.625l-0-6.298c0.031-0.144 0.453-0.573 1.13-0.744 0.25-0.064 0.677-0.124 0.967 0.088v11.024zM13.915 14.994l2.085-4.203 2.085 4.203c-0.268 0.011-0.549 0.060-0.838 0.152-0.437 0.139-0.894 0.382-1.247 0.698-0.353-0.316-0.811-0.559-1.247-0.698-0.289-0.092-0.57-0.141-0.838-0.152zM20.043 19.848c-0.024 0.015-0.047 0.030-0.070 0.045v-3.761c0-0.005-0.001-0.010-0.001-0.015-0-0.015-0.001-0.030-0.003-0.045-0.001-0.008-0.002-0.015-0.003-0.023-0.002-0.016-0.005-0.031-0.008-0.047-0.001-0.006-0.003-0.013-0.004-0.019-0.005-0.019-0.010-0.037-0.017-0.056-0.001-0.003-0.002-0.006-0.003-0.009-0.008-0.022-0.017-0.043-0.027-0.064-0-0-0-0.001-0-0.001l-3.347-6.747c-0.106-0.213-0.322-0.347-0.56-0.347s-0.454 0.134-0.56 0.347l-3.347 6.746c-0.021 0.043-0.037 0.087-0.048 0.132-0.001 0.004-0.002 0.009-0.003 0.013-0.004 0.018-0.007 0.036-0.009 0.054-0.001 0.006-0.001 0.012-0.002 0.017-0.002 0.017-0.003 0.034-0.003 0.051-0 0.004-0.001 0.008-0.001 0.011v3.761c-0.024-0.015-0.046-0.030-0.070-0.045-2.321-1.422-3.707-3.895-3.707-6.613 0-4.273 3.476-7.75 7.749-7.75s7.75 3.476 7.75 7.75c-0 2.718-1.386 5.19-3.707 6.613z"></path>
<path d="M20.933 8.261c-0.245-0.243-0.641-0.241-0.884 0.004s-0.241 0.641 0.004 0.884c1.098 1.089 1.702 2.54 1.702 4.086 0 0.582-0.087 1.157-0.259 1.71-0.102 0.33 0.082 0.68 0.411 0.782 0.062 0.019 0.124 0.028 0.186 0.028 0.267 0 0.513-0.172 0.597-0.44 0.209-0.673 0.315-1.373 0.315-2.081 0-1.882-0.736-3.649-2.072-4.974z"></path>
<path d="M19.226 7.016l-0.035-0.018c-0.306-0.16-0.684-0.040-0.843 0.266s-0.041 0.684 0.266 0.843l0.035 0.018c0.092 0.048 0.191 0.071 0.288 0.071 0.226 0 0.443-0.123 0.555-0.336 0.16-0.306 0.041-0.684-0.266-0.843z"></path>
<path d="M11.371 3.811l-1.057-1.83c-0.173-0.299-0.555-0.401-0.854-0.229s-0.401 0.555-0.229 0.854l1.057 1.83c0.116 0.201 0.326 0.313 0.542 0.313 0.106 0 0.213-0.027 0.312-0.084 0.299-0.173 0.401-0.555 0.229-0.854z"></path>
<path d="M7.308 7.339l-1.782-1.028c-0.299-0.173-0.681-0.070-0.854 0.229s-0.070 0.681 0.229 0.854l1.782 1.028c0.098 0.057 0.206 0.084 0.312 0.084 0.216 0 0.426-0.112 0.542-0.313 0.173-0.299 0.070-0.681-0.229-0.854z"></path>
<path d="M22.54 1.752c-0.299-0.173-0.681-0.070-0.854 0.229l-1.057 1.83c-0.173 0.299-0.070 0.681 0.229 0.854 0.098 0.057 0.206 0.084 0.312 0.084 0.216 0 0.426-0.112 0.542-0.313l1.057-1.83c0.173-0.299 0.070-0.681-0.229-0.854z"></path>
<path d="M5.527 12.454h-1.981c-0.345 0-0.625 0.28-0.625 0.625s0.28 0.625 0.625 0.625h1.981c0.345 0 0.625-0.28 0.625-0.625s-0.28-0.625-0.625-0.625z"></path>
<path d="M16 0c-0.345 0-0.625 0.28-0.625 0.625v2.135c0 0.345 0.28 0.625 0.625 0.625s0.625-0.28 0.625-0.625v-2.135c0-0.345-0.28-0.625-0.625-0.625z"></path>
<path d="M27.327 6.54c-0.173-0.299-0.555-0.401-0.854-0.229l-1.782 1.028c-0.299 0.173-0.401 0.555-0.229 0.854 0.116 0.201 0.326 0.313 0.542 0.313 0.106 0 0.213-0.027 0.312-0.084l1.782-1.028c0.299-0.173 0.401-0.555 0.229-0.854z"></path>
<path d="M28.454 12.454h-1.981c-0.345 0-0.625 0.28-0.625 0.625s0.28 0.625 0.625 0.625h1.981c0.345 0 0.625-0.28 0.625-0.625s-0.28-0.625-0.625-0.625z"></path>
<path d="M27.098 18.765l-1.646-0.95c-0.299-0.173-0.681-0.070-0.854 0.229s-0.070 0.681 0.229 0.854l1.646 0.95c0.098 0.057 0.206 0.084 0.312 0.084 0.216 0 0.426-0.112 0.542-0.313 0.173-0.299 0.070-0.681-0.229-0.854z"></path>
<path d="M11.004 21.732c-0.299-0.173-0.681-0.070-0.854 0.229l-0.919 1.591c-0.173 0.299-0.070 0.681 0.229 0.854 0.098 0.057 0.206 0.084 0.312 0.084 0.216 0 0.426-0.112 0.542-0.313l0.919-1.591c0.173-0.299 0.070-0.681-0.229-0.854z"></path>
<path d="M7.401 18.043c-0.173-0.299-0.555-0.401-0.854-0.229l-1.646 0.95c-0.299 0.173-0.401 0.555-0.229 0.854 0.116 0.201 0.326 0.313 0.542 0.313 0.106 0 0.213-0.027 0.312-0.084l1.646-0.95c0.299-0.173 0.401-0.555 0.229-0.854z"></path>
<path d="M22.768 23.552l-0.919-1.591c-0.173-0.299-0.555-0.401-0.854-0.229s-0.401 0.555-0.229 0.854l0.919 1.591c0.116 0.201 0.326 0.313 0.542 0.313 0.106 0 0.213-0.027 0.312-0.084 0.299-0.173 0.401-0.555 0.229-0.854z"></path>
</svg>
