<!-- Generated by IcoMoon.io -->
<svg version="1.1" xmlns="http://www.w3.org/2000/svg" width="32" height="32" viewBox="0 0 32 32">
<title>loading</title>
<path d="M2.813 18.75c-1.551 0-2.813-1.262-2.813-2.813s1.262-2.813 2.813-2.813c1.551 0 2.813 1.262 2.813 2.813s-1.262 2.813-2.813 2.813zM14.813 6.25c-1.723 0-3.125-1.402-3.125-3.125s1.402-3.125 3.125-3.125 3.125 1.402 3.125 3.125c0 1.723-1.402 3.125-3.125 3.125zM14.813 2.5c-0.345 0-0.625 0.281-0.625 0.625s0.28 0.625 0.625 0.625c0.344 0 0.625-0.28 0.625-0.625s-0.281-0.625-0.625-0.625zM6.282 10.125c-0.81 0-1.571-0.315-2.144-0.888s-0.888-1.334-0.888-2.143c0-0.81 0.315-1.571 0.888-2.144s1.334-0.888 2.144-0.888c0.81 0 1.571 0.315 2.144 0.888v0c0.572 0.572 0.888 1.334 0.888 2.144s-0.315 1.571-0.888 2.144c-0.572 0.572-1.334 0.888-2.143 0.888zM6.282 6.563c-0.082 0-0.24 0.020-0.376 0.156s-0.156 0.293-0.156 0.376 0.020 0.24 0.156 0.375c0.136 0.136 0.293 0.156 0.376 0.156s0.24-0.020 0.375-0.156c0.136-0.136 0.156-0.293 0.156-0.376s-0.020-0.24-0.156-0.376h-0c-0.135-0.136-0.293-0.156-0.375-0.156zM23.907 10.25c-0.927 0-1.798-0.361-2.453-1.016s-1.016-1.526-1.016-2.453 0.361-1.798 1.016-2.453c0.655-0.655 1.526-1.016 2.453-1.016s1.798 0.361 2.453 1.016c0.655 0.655 1.016 1.526 1.016 2.453s-0.361 1.798-1.016 2.453c-0.655 0.655-1.526 1.016-2.453 1.016zM23.907 5.813c-0.259 0-0.502 0.101-0.685 0.284s-0.284 0.426-0.284 0.685 0.101 0.502 0.284 0.685c0.183 0.183 0.426 0.284 0.685 0.284s0.502-0.101 0.685-0.284c0.183-0.183 0.284-0.426 0.284-0.685s-0.101-0.502-0.284-0.685c-0.183-0.183-0.426-0.284-0.685-0.284zM27.938 19.936c-1.040 0-2.081-0.396-2.873-1.188-1.584-1.584-1.584-4.162 0-5.746s4.161-1.584 5.745 0 1.584 4.162 0 5.746c-0.792 0.792-1.832 1.188-2.873 1.188zM27.938 14.314c-0.4 0-0.8 0.152-1.105 0.457-0.609 0.609-0.609 1.601 0 2.21s1.6 0.609 2.21 0c0.609-0.609 0.609-1.601 0-2.21-0.305-0.304-0.705-0.457-1.105-0.457zM23.938 30.311c-1.105 0-2.209-0.42-3.050-1.261-1.681-1.681-1.681-4.417 0-6.099s4.417-1.682 6.099 0c1.682 1.681 1.682 4.417 0 6.099-0.841 0.841-1.945 1.261-3.049 1.261zM23.938 24.189c-0.464 0-0.928 0.177-1.282 0.53-0.707 0.707-0.707 1.857 0 2.563s1.857 0.707 2.563 0c0.707-0.707 0.707-1.857 0-2.563-0.354-0.353-0.818-0.53-1.282-0.53zM5.781 27.437c-0.696 0-1.392-0.265-1.922-0.795-1.060-1.060-1.060-2.785 0-3.845s2.785-1.060 3.845 0c1.060 1.060 1.060 2.785 0 3.845-0.53 0.53-1.226 0.795-1.923 0.795zM13.125 32c-0.48 0-0.96-0.183-1.326-0.548-0.731-0.731-0.731-1.921-0-2.652l0-0c0.731-0.731 1.921-0.731 2.652 0s0.731 1.921 0 2.652c-0.366 0.365-0.846 0.548-1.326 0.548z"></path>
</svg>
