<!-- Generated by IcoMoon.io -->
<svg version="1.1" xmlns="http://www.w3.org/2000/svg" width="32" height="32" viewBox="0 0 32 32">
<title>money</title>
<path d="M21.372 20.522c-0.758 0-1.375-0.534-1.375-1.19s0.617-1.19 1.375-1.19 1.375 0.534 1.375 1.19c0 0.345 0.28 0.625 0.625 0.625s0.625-0.28 0.625-0.625c0-1.145-0.853-2.108-2-2.37v-0.325c0-0.345-0.28-0.625-0.625-0.625s-0.625 0.28-0.625 0.625v0.325c-1.147 0.261-2 1.224-2 2.37 0 1.345 1.178 2.44 2.625 2.44 0.758 0 1.375 0.534 1.375 1.19s-0.617 1.19-1.375 1.19c-0.758 0-1.375-0.534-1.375-1.19 0-0.345-0.28-0.625-0.625-0.625s-0.625 0.28-0.625 0.625c0 1.145 0.853 2.108 2 2.37v0.27c0 0.345 0.28 0.625 0.625 0.625s0.625-0.28 0.625-0.625v-0.27c1.147-0.261 2-1.224 2-2.37 0-1.346-1.178-2.44-2.625-2.44z"></path>
<path d="M28.218 16.805c-0.816-1.272-1.967-2.29-3.326-2.944-0.311-0.15-0.685-0.019-0.834 0.293s-0.019 0.684 0.293 0.834c2.369 1.139 3.9 3.573 3.9 6.2 0 1.124-0.277 2.239-0.801 3.224-0.162 0.305-0.047 0.683 0.258 0.845 0.093 0.050 0.194 0.073 0.293 0.073 0.224 0 0.44-0.12 0.552-0.332 0.62-1.165 0.948-2.483 0.948-3.812 0-1.56-0.443-3.076-1.282-4.383z"></path>
<path d="M22.355 13.063l-0.042-0c-0.345 0-0.625 0.28-0.625 0.625s0.28 0.625 0.625 0.625l0.036 0c0.001 0 0.002 0 0.003 0 0.344 0 0.623-0.278 0.625-0.622s-0.277-0.626-0.622-0.628z"></path>
<path d="M18.4 27.388c-2.369-1.139-3.9-3.573-3.9-6.2 0-1.124 0.277-2.239 0.801-3.224 0.162-0.305 0.047-0.683-0.258-0.845s-0.683-0.047-0.845 0.258c-0.62 1.165-0.948 2.483-0.948 3.812 0 1.56 0.443 3.075 1.282 4.383 0.816 1.272 1.967 2.29 3.326 2.944 0.087 0.042 0.18 0.062 0.27 0.062 0.233 0 0.456-0.131 0.564-0.354 0.149-0.311 0.019-0.685-0.293-0.834z"></path>
<path d="M20.438 28.063l-0.036-0c-0.347-0.001-0.626 0.277-0.628 0.622s0.277 0.626 0.622 0.628l0.042 0c0.345 0 0.625-0.28 0.625-0.625s-0.28-0.625-0.625-0.625z"></path>
<path d="M24.213 10.948c-0.076-0.181-0.169-0.352-0.278-0.511h1.627c1.585 0 2.875-1.29 2.875-2.875s-1.29-2.875-2.875-2.875h-5.005c0.318-0.463 0.505-1.022 0.505-1.625 0-1.585-1.29-2.875-2.875-2.875h-15.312c-1.585 0-2.875 1.29-2.875 2.875s1.29 2.875 2.875 2.875h5.005c-0.318 0.463-0.505 1.022-0.505 1.625s0.187 1.162 0.505 1.625h-1.63c-1.585 0-2.875 1.29-2.875 2.875 0 0.91 0.426 1.723 1.088 2.25-0.663 0.527-1.088 1.34-1.088 2.25s0.426 1.723 1.088 2.25c-0.663 0.527-1.088 1.34-1.088 2.25s0.426 1.723 1.088 2.25c-0.663 0.527-1.088 1.34-1.088 2.25 0 1.585 1.29 2.875 2.875 2.875h7.366c1.94 2.075 4.701 3.375 7.759 3.375 5.859 0 10.625-4.766 10.625-10.625 0-4.876-3.302-8.995-7.787-10.24zM25.562 5.938c0.896 0 1.625 0.729 1.625 1.625s-0.729 1.625-1.625 1.625h-15.312c-0.896 0-1.625-0.729-1.625-1.625s0.729-1.625 1.625-1.625h15.312zM2.875 4.688c-0.896 0-1.625-0.729-1.625-1.625s0.729-1.625 1.625-1.625h15.312c0.896 0 1.625 0.729 1.625 1.625s-0.729 1.625-1.625 1.625h-15.312zM6.25 10.437h15.312c0.252 0 0.493 0.059 0.709 0.163-0.296-0.025-0.595-0.038-0.896-0.038-2.934 0-5.594 1.196-7.519 3.125h-7.606c-0.896 0-1.625-0.729-1.625-1.625s0.729-1.625 1.625-1.625zM6.25 14.937h6.538c-0.71 0.972-1.258 2.068-1.606 3.25h-4.932c-0.896 0-1.625-0.729-1.625-1.625s0.729-1.625 1.625-1.625zM6.25 19.437h4.645c-0.095 0.57-0.145 1.154-0.145 1.75 0 0.509 0.037 1.010 0.106 1.5h-4.606c-0.896 0-1.625-0.729-1.625-1.625s0.729-1.625 1.625-1.625zM6.25 27.187c-0.896 0-1.625-0.729-1.625-1.625s0.729-1.625 1.625-1.625h4.862c0.315 1.176 0.828 2.272 1.5 3.25h-6.361zM21.375 30.563c-5.169 0-9.375-4.206-9.375-9.375s4.206-9.375 9.375-9.375 9.375 4.206 9.375 9.375-4.206 9.375-9.375 9.375z"></path>
</svg>
