<!-- Generated by IcoMoon.io -->
<svg version="1.1" xmlns="http://www.w3.org/2000/svg" width="32" height="32" viewBox="0 0 32 32">
<title>peace</title>
<path d="M22.174 14.269c-0.132-0.832-0.698-1.531-1.485-1.832s-1.675-0.159-2.329 0.374c1.857-10.13 1.731-9.353 1.731-9.663 0.016-1.358-1.008-2.503-2.359-2.64s-2.583 0.781-2.839 2.115l-1.296 8.289-1.574-7.134c-0.12-0.966-0.765-1.785-1.675-2.129s-1.936-0.156-2.665 0.488c-0.729 0.644-1.041 1.639-0.811 2.585l1.778 9.6c0.378 2.014-0.577 3.090-1.469 5.687-0.703 2.032-0.366 4.28 0.902 6.017l2.623 3.62c0.26 0.383 0.37 0.848 0.309 1.306 0 0.579 0.47 1.049 1.049 1.049h8.918c0.579 0 1.049-0.47 1.049-1.049 0-1.144-0.215-0.64 2.020-4.449 0.703-1.388 1.088-2.914 1.128-4.47v-4.092l0.142-0.22c0.611-0.92 0.517-2.138-0.227-2.954s-1.948-1.021-2.921-0.498zM23.323 15.024c0.503 0.009 0.961 0.293 1.192 0.74s0.198 0.985-0.085 1.4l-2.397 3.819c-0.271 0.494-0.817 0.771-1.375 0.7s-1.016-0.479-1.153-1.025c-0.086-0.376-0.018-0.771 0.189-1.096 2.927-4.721 2.067-3.305 2.408-3.851 0.265-0.421 0.725-0.679 1.222-0.687zM21.172 14.746c-0.025 0.428-0.181 0.838-0.446 1.175 0 0-2.366 3.767-2.366 3.793-0.86 1.374-2.791 0.792-2.586-0.829 1.724-0.020 3.111-1.423 3.111-3.148v-0.525c-0.001-0.347-0.174-0.671-0.462-0.866l0.142-0.226c0.808-1.29 2.623-0.871 2.607 0.624zM14.835 19.934h-0.671c-0.29 0-0.525-0.235-0.525-0.525s0.235-0.525 0.525-0.525h0.551c-0.035 0.354 0.007 0.712 0.121 1.049zM7.9 4.543c-0.1-0.557 0.104-1.124 0.536-1.49s1.026-0.472 1.558-0.281c0.532 0.191 0.922 0.652 1.022 1.209l1.873 8.519c0.090 0.362 0.42 0.612 0.793 0.6s0.687-0.281 0.755-0.648l1.49-9.631c0.086-0.407 0.329-0.763 0.677-0.991 0.484-0.319 1.103-0.346 1.613-0.071s0.827 0.808 0.826 1.387c0 0.178 0.115-0.525-1.978 11.016h-3.504c-0.791-0.002-1.561 0.254-2.193 0.729-0.606 0.449-1.179 0.939-1.715 1.469 0.151-0.724 0.16-1.471 0.026-2.198zM24.131 22.033c-0.039 1.369-0.374 2.712-0.981 3.94-2.303 3.929-2.167 3.551-2.167 4.978h-8.918c0.063-0.679-0.124-1.358-0.525-1.91l-2.623-3.62c-0.896-1.23-1.247-2.774-0.971-4.27 0.446-2.14 2.292-4.113 4.045-5.414 0.454-0.341 1.006-0.525 1.574-0.525h4.27v0.525c0 1.159-0.939 2.098-2.098 2.098h-1.574c-0.869 0-1.574 0.705-1.574 1.574s0.705 1.574 1.574 1.574h0.74c0.835-0.001 1.591 0.494 1.925 1.259 0.068 0.182 0.231 0.311 0.424 0.336s0.383-0.058 0.495-0.216c0.112-0.158 0.128-0.365 0.041-0.539-0.055-0.123-0.118-0.242-0.189-0.357 0.329-0.079 0.639-0.221 0.913-0.42 0.276 0.921 1.071 1.591 2.026 1.704s1.886-0.35 2.37-1.18l1.222-1.962z"></path>
</svg>
