<!-- Generated by IcoMoon.io -->
<svg version="1.1" xmlns="http://www.w3.org/2000/svg" width="32" height="32" viewBox="0 0 32 32">
<title>righ-arrow</title>
<path d="M21.548 5.381c-0.207-0.204-0.492-0.33-0.806-0.33s-0.599 0.126-0.806 0.33l0-0c-0.202 0.197-0.327 0.472-0.327 0.776s0.125 0.579 0.326 0.776l0 0 8.177 7.958h-26.984c-0.628 0-1.128 0.488-1.128 1.1s0.5 1.113 1.128 1.113h26.984l-8.177 7.943c-0.202 0.2-0.327 0.478-0.327 0.785s0.125 0.585 0.327 0.785l0 0c0.451 0.44 1.179 0.44 1.612 0l10.115-9.843c0.209-0.194 0.339-0.471 0.339-0.777s-0.13-0.583-0.338-0.777l-0.001-0.001z"></path>
</svg>
