<svg aria-hidden="true" style="position: absolute; width: 0; height: 0; overflow: hidden;" version="1.1" xmlns="http://www.w3.org/2000/svg" xmlns:xlink="http://www.w3.org/1999/xlink">
<defs>
<symbol id="icon-two-down-arrows" viewBox="0 0 32 32">
<path d="M16 32l14.457-14.457-4.101-4.101-10.356 10.356-10.356-10.356-4.101 4.101z"></path>
<path d="M30.457 4.101l-4.101-4.101-10.356 10.356-10.356-10.356-4.101 4.101 14.457 14.457z"></path>
</symbol>
<symbol id="icon-top-quotes" viewBox="0 0 32 32">
<path d="M0.007 22.205c0 4.207 3.41 7.617 7.617 7.617s7.617-3.41 7.617-7.617-3.41-7.617-7.617-7.617c-0.865 0-1.692 0.151-2.467 0.416 1.714-9.832 9.381-16.172 2.274-10.954-7.881 5.786-7.433 17.922-7.424 18.144 0 0.003-0 0.007-0 0.010z"></path>
<path d="M16.765 22.205c0 4.207 3.41 7.617 7.617 7.617s7.617-3.41 7.617-7.617-3.41-7.617-7.618-7.617c-0.865 0-1.692 0.151-2.467 0.416 1.714-9.832 9.381-16.172 2.274-10.954-7.881 5.786-7.433 17.922-7.424 18.144 0 0.003-0 0.007-0 0.010z"></path>
</symbol>
<symbol id="icon-target-mapping" viewBox="0 0 32 32">
<path d="M16 10.182c-3.215 0-5.818 2.604-5.818 5.818s2.604 5.818 5.818 5.818 5.818-2.604 5.818-5.818-2.604-5.818-5.818-5.818zM29.004 14.545c-0.669-6.065-5.484-10.88-11.549-11.549v-2.996h-2.909v2.996c-6.065 0.669-10.88 5.484-11.549 11.549h-2.996v2.909h2.996c0.669 6.065 5.484 10.88 11.549 11.549v2.996h2.909v-2.996c6.065-0.669 10.88-5.484 11.549-11.549h2.996v-2.909h-2.996zM16 26.182c-5.622 0-10.182-4.56-10.182-10.182s4.56-10.182 10.182-10.182 10.182 4.56 10.182 10.182-4.56 10.182-10.182 10.182z"></path>
</symbol>
<symbol id="icon-righ-arrow" viewBox="0 0 32 32">
<path d="M21.548 5.381c-0.207-0.204-0.492-0.33-0.806-0.33s-0.599 0.126-0.806 0.33l0-0c-0.202 0.197-0.327 0.472-0.327 0.776s0.125 0.579 0.326 0.776l0 0 8.177 7.958h-26.984c-0.628 0-1.128 0.488-1.128 1.1s0.5 1.113 1.128 1.113h26.984l-8.177 7.943c-0.202 0.2-0.327 0.478-0.327 0.785s0.125 0.585 0.327 0.785l0 0c0.451 0.44 1.179 0.44 1.612 0l10.115-9.843c0.209-0.194 0.339-0.471 0.339-0.777s-0.13-0.583-0.338-0.777l-0.001-0.001z"></path>
</symbol>
<symbol id="icon-loading" viewBox="0 0 32 32">
<path d="M2.813 18.75c-1.551 0-2.813-1.262-2.813-2.813s1.262-2.813 2.813-2.813c1.551 0 2.813 1.262 2.813 2.813s-1.262 2.813-2.813 2.813zM14.813 6.25c-1.723 0-3.125-1.402-3.125-3.125s1.402-3.125 3.125-3.125 3.125 1.402 3.125 3.125c0 1.723-1.402 3.125-3.125 3.125zM14.813 2.5c-0.345 0-0.625 0.281-0.625 0.625s0.28 0.625 0.625 0.625c0.344 0 0.625-0.28 0.625-0.625s-0.281-0.625-0.625-0.625zM6.282 10.125c-0.81 0-1.571-0.315-2.144-0.888s-0.888-1.334-0.888-2.143c0-0.81 0.315-1.571 0.888-2.144s1.334-0.888 2.144-0.888c0.81 0 1.571 0.315 2.144 0.888v0c0.572 0.572 0.888 1.334 0.888 2.144s-0.315 1.571-0.888 2.144c-0.572 0.572-1.334 0.888-2.143 0.888zM6.282 6.563c-0.082 0-0.24 0.020-0.376 0.156s-0.156 0.293-0.156 0.376 0.020 0.24 0.156 0.375c0.136 0.136 0.293 0.156 0.376 0.156s0.24-0.020 0.375-0.156c0.136-0.136 0.156-0.293 0.156-0.376s-0.020-0.24-0.156-0.376h-0c-0.135-0.136-0.293-0.156-0.375-0.156zM23.907 10.25c-0.927 0-1.798-0.361-2.453-1.016s-1.016-1.526-1.016-2.453 0.361-1.798 1.016-2.453c0.655-0.655 1.526-1.016 2.453-1.016s1.798 0.361 2.453 1.016c0.655 0.655 1.016 1.526 1.016 2.453s-0.361 1.798-1.016 2.453c-0.655 0.655-1.526 1.016-2.453 1.016zM23.907 5.813c-0.259 0-0.502 0.101-0.685 0.284s-0.284 0.426-0.284 0.685 0.101 0.502 0.284 0.685c0.183 0.183 0.426 0.284 0.685 0.284s0.502-0.101 0.685-0.284c0.183-0.183 0.284-0.426 0.284-0.685s-0.101-0.502-0.284-0.685c-0.183-0.183-0.426-0.284-0.685-0.284zM27.938 19.936c-1.040 0-2.081-0.396-2.873-1.188-1.584-1.584-1.584-4.162 0-5.746s4.161-1.584 5.745 0 1.584 4.162 0 5.746c-0.792 0.792-1.832 1.188-2.873 1.188zM27.938 14.314c-0.4 0-0.8 0.152-1.105 0.457-0.609 0.609-0.609 1.601 0 2.21s1.6 0.609 2.21 0c0.609-0.609 0.609-1.601 0-2.21-0.305-0.304-0.705-0.457-1.105-0.457zM23.938 30.311c-1.105 0-2.209-0.42-3.050-1.261-1.681-1.681-1.681-4.417 0-6.099s4.417-1.682 6.099 0c1.682 1.681 1.682 4.417 0 6.099-0.841 0.841-1.945 1.261-3.049 1.261zM23.938 24.189c-0.464 0-0.928 0.177-1.282 0.53-0.707 0.707-0.707 1.857 0 2.563s1.857 0.707 2.563 0c0.707-0.707 0.707-1.857 0-2.563-0.354-0.353-0.818-0.53-1.282-0.53zM5.781 27.437c-0.696 0-1.392-0.265-1.922-0.795-1.060-1.060-1.060-2.785 0-3.845s2.785-1.060 3.845 0c1.060 1.060 1.060 2.785 0 3.845-0.53 0.53-1.226 0.795-1.923 0.795zM13.125 32c-0.48 0-0.96-0.183-1.326-0.548-0.731-0.731-0.731-1.921-0-2.652l0-0c0.731-0.731 1.921-0.731 2.652 0s0.731 1.921 0 2.652c-0.366 0.365-0.846 0.548-1.326 0.548z"></path>
</symbol>
<symbol id="icon-world" viewBox="0 0 32 32">
<path d="M16 0c-8.836 0-16 7.164-16 16s7.164 16 16 16 16-7.164 16-16c-0.010-8.832-7.168-15.99-16-16zM29.838 21.605l-4.55 0.785c0.521-1.91 0.802-3.878 0.837-5.857h4.795c-0.060 1.741-0.427 3.458-1.082 5.072zM1.080 16.533h4.795c0.035 1.979 0.316 3.947 0.837 5.857l-4.55-0.785c-0.656-1.614-1.022-3.331-1.082-5.072zM2.162 10.395l4.55-0.785c-0.521 1.91-0.802 3.878-0.837 5.857h-4.795c0.060-1.741 0.427-3.458 1.082-5.072zM16.533 8.563c1.916 0.024 3.828 0.199 5.717 0.522l1.883 0.325c0.578 1.968 0.89 4.005 0.925 6.056h-8.525zM22.433 8.034c-1.949-0.333-3.922-0.513-5.899-0.537v-6.4c3.058 0.294 5.714 3.093 7.219 7.167zM15.467 7.497c-1.977 0.024-3.949 0.204-5.899 0.537l-1.32 0.228c1.505-4.075 4.161-6.876 7.219-7.168zM9.75 9.085c1.889-0.323 3.801-0.498 5.717-0.522v6.903h-8.525c0.036-2.051 0.347-4.088 0.925-6.056zM6.941 16.533h8.525v6.903c-1.916-0.024-3.828-0.199-5.717-0.522l-1.883-0.325c-0.578-1.968-0.89-4.005-0.925-6.056zM9.567 23.966c1.949 0.334 3.922 0.514 5.899 0.54v6.4c-3.058-0.294-5.714-3.093-7.219-7.168zM16.533 24.506c1.977-0.026 3.949-0.207 5.899-0.54l1.32-0.228c-1.505 4.075-4.161 6.876-7.219 7.168zM22.25 22.915c-1.889 0.323-3.801 0.498-5.717 0.522v-6.903h8.525c-0.036 2.051-0.347 4.088-0.925 6.056zM26.125 15.467c-0.035-1.979-0.316-3.947-0.837-5.857l4.55 0.785c0.656 1.614 1.022 3.331 1.082 5.072zM29.298 9.219l-4.362-0.753c-0.784-2.558-2.251-4.854-4.243-6.64 3.725 1.243 6.815 3.897 8.605 7.393zM11.307 1.827c-1.992 1.786-3.459 4.082-4.243 6.64l-4.362 0.753c1.79-3.496 4.88-6.149 8.605-7.393zM2.702 22.781l4.362 0.753c0.784 2.558 2.251 4.854 4.243 6.64-3.725-1.243-6.815-3.897-8.605-7.393zM20.693 30.173c1.992-1.786 3.459-4.082 4.243-6.64l4.362-0.753c-1.79 3.496-4.88 6.149-8.605 7.393z"></path>
</symbol>
<symbol id="icon-handshake" viewBox="0 0 32 32">
<path d="M31.863 19.862l-2.419-2.419c-0.32-0.32-0.745-0.496-1.198-0.496-0.332 0-0.649 0.095-0.921 0.272l-2.065-2.065 0.716-0.716c0.763-0.764 0.763-2.008-0-2.772-0.329-0.329-0.755-0.526-1.213-0.566 0.198-0.667 0.034-1.42-0.492-1.946-0.307-0.307-0.698-0.499-1.121-0.556 0.088-0.225 0.134-0.466 0.134-0.715 0-0.524-0.204-1.016-0.574-1.386-0.341-0.341-0.778-0.53-1.225-0.567 0.19-0.663 0.024-1.407-0.497-1.929-0.37-0.37-0.863-0.574-1.386-0.574-0.386 0-0.755 0.111-1.070 0.318l-0.129-0.245c-0.3-0.57-0.929-0.893-1.567-0.804l-2.955 0.412c-0.347-0.309-0.789-0.478-1.258-0.478-0.506 0-0.983 0.197-1.341 0.556-0.341 0.341-0.524 0.782-0.55 1.23-0.131-0.028-0.266-0.043-0.403-0.043-0.506 0-0.982 0.197-1.341 0.555v0c-0.518 0.519-0.673 1.265-0.464 1.92-0.407 0.049-0.801 0.229-1.113 0.54 0 0 0 0 0 0-0.487 0.487-0.653 1.177-0.498 1.802-0.434 0.034-0.858 0.217-1.189 0.548v0c-0.739 0.739-0.739 1.942 0 2.681l0.739 0.739c0.081 0.081 0.169 0.153 0.26 0.217 0.082 0.543 0.298 1.057 0.626 1.495l-2.672 2.673c-0.656-0.425-1.544-0.351-2.119 0.224l-2.419 2.419c-0.296 0.296-0.082 0.8 0.331 0.8 0.12 0 0.24-0.046 0.331-0.137l2.419-2.419c0.295-0.295 0.775-0.295 1.069 0l1.505 1.505c0.183 0.183 0.48 0.183 0.663 0s0.183-0.48 0-0.663l-1.092-1.092 2.954-2.954c0.183-0.183 0.183-0.48 0-0.663-0.242-0.242-0.427-0.533-0.546-0.85 0.010 0 0.020 0.001 0.029 0.001 0.485 0 0.971-0.185 1.341-0.554 0.318-0.318 0.509-0.73 0.548-1.173 0.155 0.041 0.317 0.062 0.482 0.062 0.506 0 0.982-0.197 1.341-0.555 0.303-0.303 0.481-0.684 0.536-1.078 0.201 0.071 0.415 0.108 0.634 0.108 0.506 0 0.982-0.197 1.341-0.555 0.654-0.654 0.729-1.671 0.225-2.409 0.338-0.080 0.647-0.252 0.899-0.504 0.006-0.006 0.011-0.012 0.017-0.018 0.086-0.006 0.173-0.016 0.259-0.032l1.086-0.19c0.134 0.006 0.266-0.044 0.361-0.142l0.009-0.008c0-0 0-0 0-0l1.843-1.843c0.005-0.005 0.009-0.010 0.014-0.014l0.141-0.141c0.193-0.193 0.45-0.3 0.723-0.3s0.53 0.106 0.723 0.299c0.398 0.399 0.399 1.048 0 1.446l-0.387 0.387c-0.183 0.183-0.183 0.48 0 0.663s0.48 0.183 0.663 0l0.002-0.002c0.399-0.397 1.046-0.396 1.444 0.002 0.193 0.193 0.299 0.449 0.299 0.723s-0.106 0.53-0.3 0.723l-0.545 0.545c-0.001 0.001-0.002 0.002-0.003 0.003-0.183 0.183-0.183 0.48 0.001 0.663s0.48 0.183 0.663-0l0.002-0.002c0.192-0.192 0.448-0.297 0.721-0.297s0.53 0.106 0.723 0.299c0.398 0.399 0.399 1.048 0 1.446l-0.403 0.403c-0.183 0.183-0.183 0.48-0 0.663s0.48 0.183 0.663 0.001c0.193-0.193 0.45-0.299 0.723-0.299s0.53 0.106 0.723 0.299c0.398 0.399 0.398 1.048 0 1.447l-1.042 1.042c-0.002 0.002-0.004 0.003-0.005 0.005s-0.003 0.004-0.005 0.005l-6.016 6.016c-0.408 0.408-0.951 0.633-1.529 0.633s-1.12-0.225-1.528-0.633l-0.085-0.085c-0.183-0.183-0.48-0.183-0.663 0l-3.247 3.247-3.402-3.402c-0.183-0.183-0.48-0.183-0.663 0s-0.183 0.48 0 0.663l3.815 3.815c0.295 0.295 0.295 0.775 0 1.069l-2.419 2.419c-0.183 0.183-0.183 0.48 0 0.663 0.091 0.091 0.211 0.137 0.331 0.137s0.24-0.046 0.331-0.137l2.419-2.419c0.575-0.575 0.649-1.463 0.224-2.119l2.955-2.955c0.547 0.438 1.221 0.675 1.931 0.675 0.828 0 1.606-0.322 2.192-0.908l5.69-5.689 2.039 2.039-5.827 5.827-1.216-1.216c-0.183-0.183-0.48-0.183-0.663 0s-0.183 0.48 0 0.663l1.242 1.242c-0.177 0.272-0.272 0.589-0.272 0.922 0 0.452 0.176 0.878 0.496 1.198l2.419 2.419c0.183 0.183 0.48 0.183 0.663 0s0.183-0.48 0-0.663l-2.419-2.419c-0.143-0.143-0.221-0.333-0.221-0.535s0.079-0.392 0.221-0.535l6.653-6.653c0.143-0.143 0.333-0.222 0.535-0.222s0.392 0.079 0.535 0.222l2.419 2.419c0.183 0.183 0.48 0.183 0.663 0s0.183-0.48-0-0.663zM11.944 3.849c0.168-0.168 0.387-0.265 0.622-0.278-0.008 0.010-0.016 0.019-0.024 0.029-0.162 0.219-0.228 0.488-0.186 0.757l0.081 0.512c0.109 0.687 0.48 1.288 1.046 1.693 0.045 0.032 0.091 0.062 0.137 0.091-0.185-0.036-0.355-0.126-0.491-0.263l-1.189-1.188c-0.371-0.374-0.37-0.98 0.002-1.353zM8.48 12.494c-0.374 0.374-0.982 0.374-1.355 0l-0.739-0.738c-0.374-0.374-0.374-0.982 0-1.355v0c0.373-0.373 0.981-0.374 1.354-0.001l0.739 0.739c0.181 0.181 0.281 0.422 0.281 0.678s-0.1 0.497-0.281 0.678zM10.85 10.828c-0.181 0.181-0.422 0.281-0.678 0.281s-0.497-0.1-0.678-0.281l-1.090-1.091c-0.001-0.001-0.001-0.001-0.002-0.002l-0.33-0.33c-0.374-0.374-0.374-0.982 0-1.355v0c0.373-0.373 0.981-0.374 1.355-0l1.422 1.422c0.373 0.374 0.373 0.982-0 1.355zM13.361 9.303c-0.181 0.181-0.422 0.281-0.678 0.281s-0.497-0.1-0.678-0.281l-0.492-0.492c-0-0-0-0-0-0l-1.422-1.422c-0.001-0.001-0.001-0.001-0.002-0.002l-0.44-0.44c-0.374-0.374-0.374-0.982 0-1.355v0c0.374-0.374 0.982-0.374 1.355 0l0.271 0.271c0.002 0.002 0.003 0.003 0.005 0.005l2.080 2.080c0.374 0.374 0.374 0.982 0 1.355zM17.486 4.731l-1.164 1.164-1.059 0.185c-0.436 0.076-0.874-0.024-1.234-0.281s-0.596-0.64-0.666-1.077l-0.081-0.512c-0.004-0.024 0.005-0.042 0.013-0.053s0.023-0.024 0.047-0.028l3.622-0.505c0.027-0.004 0.055-0.006 0.082-0.006 0.218 0 0.423 0.121 0.527 0.318l0.244 0.464-0.33 0.33z"></path>
</symbol>
<symbol id="icon-peace" viewBox="0 0 32 32">
<path d="M22.174 14.269c-0.132-0.832-0.698-1.531-1.485-1.832s-1.675-0.159-2.329 0.374c1.857-10.13 1.731-9.353 1.731-9.663 0.016-1.358-1.008-2.503-2.359-2.64s-2.583 0.781-2.839 2.115l-1.296 8.289-1.574-7.134c-0.12-0.966-0.765-1.785-1.675-2.129s-1.936-0.156-2.665 0.488c-0.729 0.644-1.041 1.639-0.811 2.585l1.778 9.6c0.378 2.014-0.577 3.090-1.469 5.687-0.703 2.032-0.366 4.28 0.902 6.017l2.623 3.62c0.26 0.383 0.37 0.848 0.309 1.306 0 0.579 0.47 1.049 1.049 1.049h8.918c0.579 0 1.049-0.47 1.049-1.049 0-1.144-0.215-0.64 2.020-4.449 0.703-1.388 1.088-2.914 1.128-4.47v-4.092l0.142-0.22c0.611-0.92 0.517-2.138-0.227-2.954s-1.948-1.021-2.921-0.498zM23.323 15.024c0.503 0.009 0.961 0.293 1.192 0.74s0.198 0.985-0.085 1.4l-2.397 3.819c-0.271 0.494-0.817 0.771-1.375 0.7s-1.016-0.479-1.153-1.025c-0.086-0.376-0.018-0.771 0.189-1.096 2.927-4.721 2.067-3.305 2.408-3.851 0.265-0.421 0.725-0.679 1.222-0.687zM21.172 14.746c-0.025 0.428-0.181 0.838-0.446 1.175 0 0-2.366 3.767-2.366 3.793-0.86 1.374-2.791 0.792-2.586-0.829 1.724-0.020 3.111-1.423 3.111-3.148v-0.525c-0.001-0.347-0.174-0.671-0.462-0.866l0.142-0.226c0.808-1.29 2.623-0.871 2.607 0.624zM14.835 19.934h-0.671c-0.29 0-0.525-0.235-0.525-0.525s0.235-0.525 0.525-0.525h0.551c-0.035 0.354 0.007 0.712 0.121 1.049zM7.9 4.543c-0.1-0.557 0.104-1.124 0.536-1.49s1.026-0.472 1.558-0.281c0.532 0.191 0.922 0.652 1.022 1.209l1.873 8.519c0.090 0.362 0.42 0.612 0.793 0.6s0.687-0.281 0.755-0.648l1.49-9.631c0.086-0.407 0.329-0.763 0.677-0.991 0.484-0.319 1.103-0.346 1.613-0.071s0.827 0.808 0.826 1.387c0 0.178 0.115-0.525-1.978 11.016h-3.504c-0.791-0.002-1.561 0.254-2.193 0.729-0.606 0.449-1.179 0.939-1.715 1.469 0.151-0.724 0.16-1.471 0.026-2.198zM24.131 22.033c-0.039 1.369-0.374 2.712-0.981 3.94-2.303 3.929-2.167 3.551-2.167 4.978h-8.918c0.063-0.679-0.124-1.358-0.525-1.91l-2.623-3.62c-0.896-1.23-1.247-2.774-0.971-4.27 0.446-2.14 2.292-4.113 4.045-5.414 0.454-0.341 1.006-0.525 1.574-0.525h4.27v0.525c0 1.159-0.939 2.098-2.098 2.098h-1.574c-0.869 0-1.574 0.705-1.574 1.574s0.705 1.574 1.574 1.574h0.74c0.835-0.001 1.591 0.494 1.925 1.259 0.068 0.182 0.231 0.311 0.424 0.336s0.383-0.058 0.495-0.216c0.112-0.158 0.128-0.365 0.041-0.539-0.055-0.123-0.118-0.242-0.189-0.357 0.329-0.079 0.639-0.221 0.913-0.42 0.276 0.921 1.071 1.591 2.026 1.704s1.886-0.35 2.37-1.18l1.222-1.962z"></path>
</symbol>
<symbol id="icon-money" viewBox="0 0 32 32">
<path d="M21.372 20.522c-0.758 0-1.375-0.534-1.375-1.19s0.617-1.19 1.375-1.19 1.375 0.534 1.375 1.19c0 0.345 0.28 0.625 0.625 0.625s0.625-0.28 0.625-0.625c0-1.145-0.853-2.108-2-2.37v-0.325c0-0.345-0.28-0.625-0.625-0.625s-0.625 0.28-0.625 0.625v0.325c-1.147 0.261-2 1.224-2 2.37 0 1.345 1.178 2.44 2.625 2.44 0.758 0 1.375 0.534 1.375 1.19s-0.617 1.19-1.375 1.19c-0.758 0-1.375-0.534-1.375-1.19 0-0.345-0.28-0.625-0.625-0.625s-0.625 0.28-0.625 0.625c0 1.145 0.853 2.108 2 2.37v0.27c0 0.345 0.28 0.625 0.625 0.625s0.625-0.28 0.625-0.625v-0.27c1.147-0.261 2-1.224 2-2.37 0-1.346-1.178-2.44-2.625-2.44z"></path>
<path d="M28.218 16.805c-0.816-1.272-1.967-2.29-3.326-2.944-0.311-0.15-0.685-0.019-0.834 0.293s-0.019 0.684 0.293 0.834c2.369 1.139 3.9 3.573 3.9 6.2 0 1.124-0.277 2.239-0.801 3.224-0.162 0.305-0.047 0.683 0.258 0.845 0.093 0.050 0.194 0.073 0.293 0.073 0.224 0 0.44-0.12 0.552-0.332 0.62-1.165 0.948-2.483 0.948-3.812 0-1.56-0.443-3.076-1.282-4.383z"></path>
<path d="M22.355 13.063l-0.042-0c-0.345 0-0.625 0.28-0.625 0.625s0.28 0.625 0.625 0.625l0.036 0c0.001 0 0.002 0 0.003 0 0.344 0 0.623-0.278 0.625-0.622s-0.277-0.626-0.622-0.628z"></path>
<path d="M18.4 27.388c-2.369-1.139-3.9-3.573-3.9-6.2 0-1.124 0.277-2.239 0.801-3.224 0.162-0.305 0.047-0.683-0.258-0.845s-0.683-0.047-0.845 0.258c-0.62 1.165-0.948 2.483-0.948 3.812 0 1.56 0.443 3.075 1.282 4.383 0.816 1.272 1.967 2.29 3.326 2.944 0.087 0.042 0.18 0.062 0.27 0.062 0.233 0 0.456-0.131 0.564-0.354 0.149-0.311 0.019-0.685-0.293-0.834z"></path>
<path d="M20.438 28.063l-0.036-0c-0.347-0.001-0.626 0.277-0.628 0.622s0.277 0.626 0.622 0.628l0.042 0c0.345 0 0.625-0.28 0.625-0.625s-0.28-0.625-0.625-0.625z"></path>
<path d="M24.213 10.948c-0.076-0.181-0.169-0.352-0.278-0.511h1.627c1.585 0 2.875-1.29 2.875-2.875s-1.29-2.875-2.875-2.875h-5.005c0.318-0.463 0.505-1.022 0.505-1.625 0-1.585-1.29-2.875-2.875-2.875h-15.312c-1.585 0-2.875 1.29-2.875 2.875s1.29 2.875 2.875 2.875h5.005c-0.318 0.463-0.505 1.022-0.505 1.625s0.187 1.162 0.505 1.625h-1.63c-1.585 0-2.875 1.29-2.875 2.875 0 0.91 0.426 1.723 1.088 2.25-0.663 0.527-1.088 1.34-1.088 2.25s0.426 1.723 1.088 2.25c-0.663 0.527-1.088 1.34-1.088 2.25s0.426 1.723 1.088 2.25c-0.663 0.527-1.088 1.34-1.088 2.25 0 1.585 1.29 2.875 2.875 2.875h7.366c1.94 2.075 4.701 3.375 7.759 3.375 5.859 0 10.625-4.766 10.625-10.625 0-4.876-3.302-8.995-7.787-10.24zM25.562 5.938c0.896 0 1.625 0.729 1.625 1.625s-0.729 1.625-1.625 1.625h-15.312c-0.896 0-1.625-0.729-1.625-1.625s0.729-1.625 1.625-1.625h15.312zM2.875 4.688c-0.896 0-1.625-0.729-1.625-1.625s0.729-1.625 1.625-1.625h15.312c0.896 0 1.625 0.729 1.625 1.625s-0.729 1.625-1.625 1.625h-15.312zM6.25 10.437h15.312c0.252 0 0.493 0.059 0.709 0.163-0.296-0.025-0.595-0.038-0.896-0.038-2.934 0-5.594 1.196-7.519 3.125h-7.606c-0.896 0-1.625-0.729-1.625-1.625s0.729-1.625 1.625-1.625zM6.25 14.937h6.538c-0.71 0.972-1.258 2.068-1.606 3.25h-4.932c-0.896 0-1.625-0.729-1.625-1.625s0.729-1.625 1.625-1.625zM6.25 19.437h4.645c-0.095 0.57-0.145 1.154-0.145 1.75 0 0.509 0.037 1.010 0.106 1.5h-4.606c-0.896 0-1.625-0.729-1.625-1.625s0.729-1.625 1.625-1.625zM6.25 27.187c-0.896 0-1.625-0.729-1.625-1.625s0.729-1.625 1.625-1.625h4.862c0.315 1.176 0.828 2.272 1.5 3.25h-6.361zM21.375 30.563c-5.169 0-9.375-4.206-9.375-9.375s4.206-9.375 9.375-9.375 9.375 4.206 9.375 9.375-4.206 9.375-9.375 9.375z"></path>
</symbol>
<symbol id="icon-idea" viewBox="0 0 32 32">
<path d="M16 24.405c-0.345 0-0.625 0.28-0.625 0.625v0.050c0 0.345 0.28 0.625 0.625 0.625s0.625-0.28 0.625-0.625v-0.050c0-0.345-0.28-0.625-0.625-0.625z"></path>
<path d="M16 4.236c-4.962 0-8.999 4.037-8.999 9 0 1.568 0.41 3.112 1.184 4.465 0.751 1.312 1.83 2.423 3.119 3.213 0.302 0.185 0.54 0.373 0.723 0.57v7.867c0 1.56 0.805 2.649 1.959 2.649h4.028c1.153 0 1.959-1.090 1.959-2.649v-7.867c0.184-0.197 0.421-0.385 0.723-0.57 1.29-0.79 2.368-1.901 3.119-3.213 0.775-1.353 1.184-2.897 1.184-4.465 0-4.962-4.037-9-8.999-9zM18.722 29.351c0 0.811-0.298 1.399-0.709 1.399h-4.028c-0.411 0-0.709-0.588-0.709-1.399v-0.689h5.445v0.689zM18.722 27.412h-5.445v-11.024h-0c0.29-0.212 0.717-0.151 0.967-0.088 0.682 0.173 1.105 0.606 1.13 0.744l0 6.299c0 0.345 0.28 0.625 0.625 0.625s0.625-0.28 0.625-0.625l-0-6.298c0.031-0.144 0.453-0.573 1.13-0.744 0.25-0.064 0.677-0.124 0.967 0.088v11.024zM13.915 14.994l2.085-4.203 2.085 4.203c-0.268 0.011-0.549 0.060-0.838 0.152-0.437 0.139-0.894 0.382-1.247 0.698-0.353-0.316-0.811-0.559-1.247-0.698-0.289-0.092-0.57-0.141-0.838-0.152zM20.043 19.848c-0.024 0.015-0.047 0.030-0.070 0.045v-3.761c0-0.005-0.001-0.010-0.001-0.015-0-0.015-0.001-0.030-0.003-0.045-0.001-0.008-0.002-0.015-0.003-0.023-0.002-0.016-0.005-0.031-0.008-0.047-0.001-0.006-0.003-0.013-0.004-0.019-0.005-0.019-0.010-0.037-0.017-0.056-0.001-0.003-0.002-0.006-0.003-0.009-0.008-0.022-0.017-0.043-0.027-0.064-0-0-0-0.001-0-0.001l-3.347-6.747c-0.106-0.213-0.322-0.347-0.56-0.347s-0.454 0.134-0.56 0.347l-3.347 6.746c-0.021 0.043-0.037 0.087-0.048 0.132-0.001 0.004-0.002 0.009-0.003 0.013-0.004 0.018-0.007 0.036-0.009 0.054-0.001 0.006-0.001 0.012-0.002 0.017-0.002 0.017-0.003 0.034-0.003 0.051-0 0.004-0.001 0.008-0.001 0.011v3.761c-0.024-0.015-0.046-0.030-0.070-0.045-2.321-1.422-3.707-3.895-3.707-6.613 0-4.273 3.476-7.75 7.749-7.75s7.75 3.476 7.75 7.75c-0 2.718-1.386 5.19-3.707 6.613z"></path>
<path d="M20.933 8.261c-0.245-0.243-0.641-0.241-0.884 0.004s-0.241 0.641 0.004 0.884c1.098 1.089 1.702 2.54 1.702 4.086 0 0.582-0.087 1.157-0.259 1.71-0.102 0.33 0.082 0.68 0.411 0.782 0.062 0.019 0.124 0.028 0.186 0.028 0.267 0 0.513-0.172 0.597-0.44 0.209-0.673 0.315-1.373 0.315-2.081 0-1.882-0.736-3.649-2.072-4.974z"></path>
<path d="M19.226 7.016l-0.035-0.018c-0.306-0.16-0.684-0.040-0.843 0.266s-0.041 0.684 0.266 0.843l0.035 0.018c0.092 0.048 0.191 0.071 0.288 0.071 0.226 0 0.443-0.123 0.555-0.336 0.16-0.306 0.041-0.684-0.266-0.843z"></path>
<path d="M11.371 3.811l-1.057-1.83c-0.173-0.299-0.555-0.401-0.854-0.229s-0.401 0.555-0.229 0.854l1.057 1.83c0.116 0.201 0.326 0.313 0.542 0.313 0.106 0 0.213-0.027 0.312-0.084 0.299-0.173 0.401-0.555 0.229-0.854z"></path>
<path d="M7.308 7.339l-1.782-1.028c-0.299-0.173-0.681-0.070-0.854 0.229s-0.070 0.681 0.229 0.854l1.782 1.028c0.098 0.057 0.206 0.084 0.312 0.084 0.216 0 0.426-0.112 0.542-0.313 0.173-0.299 0.070-0.681-0.229-0.854z"></path>
<path d="M22.54 1.752c-0.299-0.173-0.681-0.070-0.854 0.229l-1.057 1.83c-0.173 0.299-0.070 0.681 0.229 0.854 0.098 0.057 0.206 0.084 0.312 0.084 0.216 0 0.426-0.112 0.542-0.313l1.057-1.83c0.173-0.299 0.070-0.681-0.229-0.854z"></path>
<path d="M5.527 12.454h-1.981c-0.345 0-0.625 0.28-0.625 0.625s0.28 0.625 0.625 0.625h1.981c0.345 0 0.625-0.28 0.625-0.625s-0.28-0.625-0.625-0.625z"></path>
<path d="M16 0c-0.345 0-0.625 0.28-0.625 0.625v2.135c0 0.345 0.28 0.625 0.625 0.625s0.625-0.28 0.625-0.625v-2.135c0-0.345-0.28-0.625-0.625-0.625z"></path>
<path d="M27.327 6.54c-0.173-0.299-0.555-0.401-0.854-0.229l-1.782 1.028c-0.299 0.173-0.401 0.555-0.229 0.854 0.116 0.201 0.326 0.313 0.542 0.313 0.106 0 0.213-0.027 0.312-0.084l1.782-1.028c0.299-0.173 0.401-0.555 0.229-0.854z"></path>
<path d="M28.454 12.454h-1.981c-0.345 0-0.625 0.28-0.625 0.625s0.28 0.625 0.625 0.625h1.981c0.345 0 0.625-0.28 0.625-0.625s-0.28-0.625-0.625-0.625z"></path>
<path d="M27.098 18.765l-1.646-0.95c-0.299-0.173-0.681-0.070-0.854 0.229s-0.070 0.681 0.229 0.854l1.646 0.95c0.098 0.057 0.206 0.084 0.312 0.084 0.216 0 0.426-0.112 0.542-0.313 0.173-0.299 0.070-0.681-0.229-0.854z"></path>
<path d="M11.004 21.732c-0.299-0.173-0.681-0.070-0.854 0.229l-0.919 1.591c-0.173 0.299-0.070 0.681 0.229 0.854 0.098 0.057 0.206 0.084 0.312 0.084 0.216 0 0.426-0.112 0.542-0.313l0.919-1.591c0.173-0.299 0.070-0.681-0.229-0.854z"></path>
<path d="M7.401 18.043c-0.173-0.299-0.555-0.401-0.854-0.229l-1.646 0.95c-0.299 0.173-0.401 0.555-0.229 0.854 0.116 0.201 0.326 0.313 0.542 0.313 0.106 0 0.213-0.027 0.312-0.084l1.646-0.95c0.299-0.173 0.401-0.555 0.229-0.854z"></path>
<path d="M22.768 23.552l-0.919-1.591c-0.173-0.299-0.555-0.401-0.854-0.229s-0.401 0.555-0.229 0.854l0.919 1.591c0.116 0.201 0.326 0.313 0.542 0.313 0.106 0 0.213-0.027 0.312-0.084 0.299-0.173 0.401-0.555 0.229-0.854z"></path>
</symbol>
<symbol id="icon-docs" viewBox="0 0 32 32">
<path d="M25.59 17.089h-1.233v-14.889c0-1.248-1.015-2.263-2.263-2.263h-11.36c-0.907 0-1.679 0.388-2.209 0.98-3.128 3.59-3.843 4.043-4.008 4.888-0.249 0.801-0.087-0.208-0.135 23.869 0 1.248 1.015 2.263 2.263 2.263h15.449c1.248 0 2.263-1.015 2.263-2.263v-1.225h0.935c1.345 0 2.44-1.095 2.44-2.44 0-2.335 0-4.953 0-6.779 0-1.181-0.961-2.142-2.142-2.142zM9.767 1.488v2.417c0 0.769-0.626 1.395-1.395 1.395h-2.083c3.354-3.721 3.172-3.602 3.478-3.812zM23.108 29.675c0 0.558-0.454 1.013-1.013 1.013h-15.449c-0.558 0-1.013-0.454-1.013-1.013 0.002-24.032-0.005-22.986 0.006-23.125h2.733c1.458 0 2.645-1.187 2.645-2.645v-2.718h11.078c0.559 0 1.013 0.454 1.013 1.013v18.227h-7.295c-0.806 0-1.462 0.656-1.462 1.462v5.098c0 0.806 0.656 1.462 1.462 1.462h7.295zM26.483 26.010c0 0.656-0.534 1.19-1.19 1.19-1.458 0-8.122 0-9.48 0-0.117 0-0.212-0.095-0.212-0.212v-5.098c0-0.117 0.095-0.212 0.212-0.212 10.66 0 10.035 0.083 10.67-0.233zM26.483 19.431c0 0.55-0.447 0.996-0.996 0.996h-1.129v-2.089h1.233c0.492 0 0.892 0.4 0.892 0.893z"></path>
<path d="M20.021 10.534h-0.002c-0.345 0-0.624 0.28-0.624 0.625s0.281 0.625 0.626 0.625 0.625-0.28 0.625-0.625c0-0.345-0.28-0.625-0.625-0.625z"></path>
<path d="M8.582 11.784h8.938c0.345 0 0.625-0.28 0.625-0.625s-0.28-0.625-0.625-0.625h-8.938c-0.345 0-0.625 0.28-0.625 0.625s0.28 0.625 0.625 0.625z"></path>
<path d="M8.582 15.282h11.438c0.345 0 0.625-0.28 0.625-0.625s-0.28-0.625-0.625-0.625h-11.438c-0.345 0-0.625 0.28-0.625 0.625s0.28 0.625 0.625 0.625z"></path>
<path d="M20.646 18.154c0-0.345-0.28-0.625-0.625-0.625h-11.438c-0.345 0-0.625 0.28-0.625 0.625s0.28 0.625 0.625 0.625h11.438c0.345 0 0.625-0.28 0.625-0.625z"></path>
</symbol>
<symbol id="icon-target" viewBox="0 0 32 32">
<path d="M19.555 8.961c0.122 0.122 0.282 0.183 0.442 0.183s0.32-0.061 0.442-0.183c0.244-0.244 0.244-0.64 0-0.884l-0.008-0.008c-0.244-0.244-0.64-0.244-0.884 0s-0.244 0.64 0 0.884l0.009 0.008z"></path>
<path d="M29.639 14.875l2.178-2.178c0.179-0.179 0.232-0.448 0.135-0.681s-0.325-0.386-0.577-0.386h-4.516c-0.59-2.416-1.829-4.618-3.6-6.389-2.573-2.573-5.995-3.991-9.634-3.991s-7.061 1.417-9.634 3.991c-2.573 2.573-3.991 5.995-3.991 9.634s1.417 7.061 3.991 9.634c0.765 0.765 1.606 1.427 2.505 1.981l-1.883 3.327c-0.109 0.194-0.108 0.431 0.004 0.623s0.317 0.31 0.54 0.31h3.219c0.225 0 0.433-0.121 0.544-0.317l1.331-2.352c1.090 0.276 2.221 0.419 3.375 0.419s2.285-0.143 3.375-0.419l1.331 2.352c0.111 0.196 0.319 0.317 0.544 0.317h3.219c0.222 0 0.428-0.118 0.54-0.31s0.113-0.429 0.004-0.623l-1.883-3.327c0.899-0.554 1.739-1.216 2.505-1.981 1.77-1.77 3.010-3.973 3.6-6.389h4.516c0.253 0 0.481-0.152 0.577-0.386s0.043-0.502-0.135-0.681l-2.178-2.178zM28.496 14.25h-4.362l1.37-1.37h4.362l-1.37 1.37zM8.011 29.5h-1.782l1.36-2.403c0.467 0.231 0.946 0.436 1.437 0.611l-1.015 1.792zM21.022 29.5h-1.782l-1.015-1.792c0.49-0.175 0.97-0.38 1.437-0.611l1.36 2.403zM22.375 23.625c-0.826 0.826-1.748 1.52-2.74 2.073-0.012 0.006-0.025 0.012-0.037 0.018-0.008 0.004-0.014 0.009-0.022 0.014-0.761 0.419-1.564 0.755-2.396 1.004-0.033 0.006-0.065 0.016-0.097 0.028-1.11 0.321-2.271 0.488-3.458 0.488s-2.349-0.167-3.458-0.488c-0.032-0.012-0.064-0.022-0.097-0.028-0.832-0.248-1.635-0.585-2.396-1.004-0.007-0.005-0.014-0.009-0.022-0.014-0.012-0.007-0.024-0.012-0.037-0.018-0.993-0.553-1.915-1.247-2.74-2.073-2.337-2.337-3.625-5.445-3.625-8.75s1.287-6.413 3.625-8.75c2.337-2.337 5.445-3.625 8.75-3.625s6.413 1.287 8.75 3.625c1.536 1.536 2.631 3.428 3.194 5.505h-0.324c-0.166 0-0.325 0.066-0.442 0.183l-1.659 1.659c-0.167-1.136-0.535-2.241-1.090-3.246-0.167-0.302-0.547-0.412-0.849-0.245s-0.412 0.547-0.245 0.849c0.593 1.075 0.925 2.243 1.010 3.42h-2.756c-0.139-1.266-0.699-2.439-1.612-3.352-1.062-1.063-2.475-1.648-3.977-1.648s-2.915 0.585-3.977 1.648c-1.062 1.063-1.648 2.475-1.648 3.977s0.585 2.915 1.647 3.977c1.062 1.062 2.475 1.648 3.978 1.648s2.915-0.585 3.977-1.648c0.914-0.914 1.473-2.086 1.612-3.352h2.753c-0.149 1.954-0.974 3.85-2.421 5.297-1.582 1.582-3.685 2.453-5.922 2.453s-4.34-0.871-5.922-2.453c-1.582-1.582-2.453-3.685-2.453-5.922s0.871-4.34 2.453-5.922c2.624-2.624 6.723-3.205 9.967-1.414 0.302 0.167 0.682 0.057 0.849-0.245s0.057-0.682-0.245-0.849c-1.79-0.988-3.898-1.382-5.936-1.109-2.105 0.282-4.014 1.228-5.52 2.733-1.818 1.818-2.819 4.235-2.819 6.806s1.001 4.988 2.819 6.806c1.818 1.818 4.235 2.819 6.806 2.819s4.988-1.001 6.806-2.819c1.477-1.477 2.414-3.342 2.716-5.4l1.657 1.657c0.117 0.117 0.276 0.183 0.442 0.183h0.323c-0.562 2.077-1.658 3.97-3.193 5.505zM15.666 13.697c-0.173-0.299-0.555-0.401-0.854-0.229l-1.5 0.866c-0.193 0.112-0.313 0.318-0.313 0.541s0.119 0.43 0.313 0.541l1.5 0.866c0.098 0.057 0.206 0.084 0.312 0.084 0.216 0 0.426-0.112 0.542-0.313 0.101-0.176 0.107-0.38 0.035-0.553h2.255c-0.132 0.931-0.56 1.791-1.237 2.469v0c-0.826 0.826-1.925 1.281-3.094 1.281s-2.267-0.455-3.094-1.281c-0.826-0.826-1.281-1.925-1.281-3.094s0.455-2.267 1.281-3.094c0.826-0.826 1.925-1.281 3.094-1.281s2.267 0.455 3.094 1.281c0.677 0.677 1.104 1.537 1.237 2.469h-2.255c0.072-0.174 0.067-0.378-0.035-0.553zM25.504 16.87l-1.37-1.37h4.362l1.37 1.37h-4.362z"></path>
</symbol>
<symbol id="icon-circle" viewBox="0 0 32 32">
<path d="M24.221 12.069c1.676 4.043-0.243 8.68-4.286 10.355s-8.68-0.243-10.355-4.286c-1.676-4.043 0.243-8.68 4.286-10.355s8.68 0.243 10.355 4.286z"></path>
<path d="M26.634 7.541c1.502 0 2.725-1.222 2.725-2.725s-1.222-2.725-2.725-2.725-2.725 1.222-2.725 2.725 1.222 2.725 2.725 2.725z"></path>
<path d="M8.912 4.553c2.312-1.752 5.072-2.678 7.981-2.678 2.104 0 4.116 0.48 5.98 1.426l0.849-1.672c-2.129-1.081-4.427-1.629-6.829-1.629-3.322 0-6.473 1.058-9.114 3.059-2.554 1.935-4.461 4.685-5.369 7.741l1.798 0.534c0.795-2.677 2.465-5.085 4.703-6.78z"></path>
<path d="M29.975 7.548l-1.623 0.94c1.159 2.003 1.772 4.291 1.772 6.619 0 2.909-0.926 5.669-2.678 7.981-1.696 2.238-4.104 3.908-6.78 4.703l0.534 1.798c3.057-0.908 5.806-2.814 7.741-5.369 2.001-2.641 3.059-5.792 3.059-9.114 0-2.657-0.7-5.27-2.025-7.558z"></path>
<path d="M4.209 18.879l-1.798 0.534c0.711 2.395 2.025 4.599 3.801 6.375s3.98 3.090 6.375 3.801l0.534-1.798c-2.096-0.623-4.027-1.774-5.582-3.329s-2.707-3.486-3.329-5.582z"></path>
<path d="M16.893 26.551c-1.502 0-2.725 1.222-2.725 2.725s1.222 2.725 2.725 2.725 2.725-1.222 2.725-2.725-1.222-2.725-2.725-2.725z"></path>
<path d="M5.449 15.107c0 1.505-1.22 2.725-2.725 2.725s-2.725-1.22-2.725-2.725c0-1.505 1.22-2.725 2.725-2.725s2.725 1.22 2.725 2.725z"></path>
</symbol>
<symbol id="icon-facebook" viewBox="0 0 32 32">
<path fill="#3b5998" style="fill: var(--color2, #3b5998)" d="M32 16c0 8.837-7.163 16-16 16s-16-7.163-16-16c0-8.837 7.163-16 16-16s16 7.163 16 16z"></path>
<path fill="#fff" style="fill: var(--color1, #fff)" d="M20.022 16.626h-2.855v10.459h-4.326v-10.459h-2.057v-3.676h2.057v-2.379c0-1.701 0.808-4.365 4.364-4.365l3.204 0.013v3.568h-2.325c-0.381 0-0.918 0.191-0.918 1.002v2.163h3.233l-0.378 3.672z"></path>
</symbol>
<symbol id="icon-telegram" viewBox="0 0 32 32">
<path fill="#039be5" style="fill: var(--color3, #039be5)" d="M32 16c0 8.837-7.163 16-16 16s-16-7.163-16-16c0-8.837 7.163-16 16-16s16 7.163 16 16z"></path>
<path fill="#fff" style="fill: var(--color1, #fff)" d="M7.321 15.653l15.427-5.948c0.716-0.259 1.341 0.175 1.109 1.257l0.001-0.001-2.627 12.375c-0.195 0.877-0.716 1.091-1.445 0.677l-4-2.948-1.929 1.859c-0.213 0.213-0.393 0.393-0.807 0.393l0.284-4.071 7.413-6.697c0.323-0.284-0.072-0.444-0.497-0.161l-9.161 5.768-3.949-1.232c-0.857-0.272-0.876-0.857 0.181-1.271z"></path>
</symbol>
<symbol id="icon-youtube" viewBox="0 0 32 32">
<path fill="#d42428" style="fill: var(--color4, #d42428)" d="M32 16c0 8.837-7.163 16-16 16s-16-7.163-16-16c0-8.837 7.163-16 16-16s16 7.163 16 16z"></path>
<path fill="#cc202d" style="fill: var(--color5, #cc202d)" d="M27.313 4.685c6.248 6.249 6.249 16.38 0 22.629s-16.38 6.249-22.629 0l22.629-22.629z"></path>
<path fill="#ba202e" style="fill: var(--color6, #ba202e)" d="M31.678 19.205l-7.919-7.919-9.34 1.063-5.649 8.746 10.556 10.556c6.206-1.313 11.086-6.222 12.352-12.447z"></path>
<path fill="#fff" style="fill: var(--color1, #fff)" d="M24.373 12.912c0-1.341-1.087-2.428-2.427-2.428h-11.387c-1.34 0-2.427 1.087-2.427 2.428v6.512c0 1.341 1.087 2.428 2.427 2.428h11.387c1.341 0 2.427-1.087 2.427-2.428v-6.512h0zM14.628 18.916v-6.116l4.638 3.058-4.638 3.058z"></path>
</symbol>
</defs>
</svg>
