<!-- Generated by IcoMoon.io -->
<svg version="1.1" xmlns="http://www.w3.org/2000/svg" width="32" height="32" viewBox="0 0 32 32">
<title>target</title>
<path d="M19.555 8.961c0.122 0.122 0.282 0.183 0.442 0.183s0.32-0.061 0.442-0.183c0.244-0.244 0.244-0.64 0-0.884l-0.008-0.008c-0.244-0.244-0.64-0.244-0.884 0s-0.244 0.64 0 0.884l0.009 0.008z"></path>
<path d="M29.639 14.875l2.178-2.178c0.179-0.179 0.232-0.448 0.135-0.681s-0.325-0.386-0.577-0.386h-4.516c-0.59-2.416-1.829-4.618-3.6-6.389-2.573-2.573-5.995-3.991-9.634-3.991s-7.061 1.417-9.634 3.991c-2.573 2.573-3.991 5.995-3.991 9.634s1.417 7.061 3.991 9.634c0.765 0.765 1.606 1.427 2.505 1.981l-1.883 3.327c-0.109 0.194-0.108 0.431 0.004 0.623s0.317 0.31 0.54 0.31h3.219c0.225 0 0.433-0.121 0.544-0.317l1.331-2.352c1.090 0.276 2.221 0.419 3.375 0.419s2.285-0.143 3.375-0.419l1.331 2.352c0.111 0.196 0.319 0.317 0.544 0.317h3.219c0.222 0 0.428-0.118 0.54-0.31s0.113-0.429 0.004-0.623l-1.883-3.327c0.899-0.554 1.739-1.216 2.505-1.981 1.77-1.77 3.010-3.973 3.6-6.389h4.516c0.253 0 0.481-0.152 0.577-0.386s0.043-0.502-0.135-0.681l-2.178-2.178zM28.496 14.25h-4.362l1.37-1.37h4.362l-1.37 1.37zM8.011 29.5h-1.782l1.36-2.403c0.467 0.231 0.946 0.436 1.437 0.611l-1.015 1.792zM21.022 29.5h-1.782l-1.015-1.792c0.49-0.175 0.97-0.38 1.437-0.611l1.36 2.403zM22.375 23.625c-0.826 0.826-1.748 1.52-2.74 2.073-0.012 0.006-0.025 0.012-0.037 0.018-0.008 0.004-0.014 0.009-0.022 0.014-0.761 0.419-1.564 0.755-2.396 1.004-0.033 0.006-0.065 0.016-0.097 0.028-1.11 0.321-2.271 0.488-3.458 0.488s-2.349-0.167-3.458-0.488c-0.032-0.012-0.064-0.022-0.097-0.028-0.832-0.248-1.635-0.585-2.396-1.004-0.007-0.005-0.014-0.009-0.022-0.014-0.012-0.007-0.024-0.012-0.037-0.018-0.993-0.553-1.915-1.247-2.74-2.073-2.337-2.337-3.625-5.445-3.625-8.75s1.287-6.413 3.625-8.75c2.337-2.337 5.445-3.625 8.75-3.625s6.413 1.287 8.75 3.625c1.536 1.536 2.631 3.428 3.194 5.505h-0.324c-0.166 0-0.325 0.066-0.442 0.183l-1.659 1.659c-0.167-1.136-0.535-2.241-1.090-3.246-0.167-0.302-0.547-0.412-0.849-0.245s-0.412 0.547-0.245 0.849c0.593 1.075 0.925 2.243 1.010 3.42h-2.756c-0.139-1.266-0.699-2.439-1.612-3.352-1.062-1.063-2.475-1.648-3.977-1.648s-2.915 0.585-3.977 1.648c-1.062 1.063-1.648 2.475-1.648 3.977s0.585 2.915 1.647 3.977c1.062 1.062 2.475 1.648 3.978 1.648s2.915-0.585 3.977-1.648c0.914-0.914 1.473-2.086 1.612-3.352h2.753c-0.149 1.954-0.974 3.85-2.421 5.297-1.582 1.582-3.685 2.453-5.922 2.453s-4.34-0.871-5.922-2.453c-1.582-1.582-2.453-3.685-2.453-5.922s0.871-4.34 2.453-5.922c2.624-2.624 6.723-3.205 9.967-1.414 0.302 0.167 0.682 0.057 0.849-0.245s0.057-0.682-0.245-0.849c-1.79-0.988-3.898-1.382-5.936-1.109-2.105 0.282-4.014 1.228-5.52 2.733-1.818 1.818-2.819 4.235-2.819 6.806s1.001 4.988 2.819 6.806c1.818 1.818 4.235 2.819 6.806 2.819s4.988-1.001 6.806-2.819c1.477-1.477 2.414-3.342 2.716-5.4l1.657 1.657c0.117 0.117 0.276 0.183 0.442 0.183h0.323c-0.562 2.077-1.658 3.97-3.193 5.505zM15.666 13.697c-0.173-0.299-0.555-0.401-0.854-0.229l-1.5 0.866c-0.193 0.112-0.313 0.318-0.313 0.541s0.119 0.43 0.313 0.541l1.5 0.866c0.098 0.057 0.206 0.084 0.312 0.084 0.216 0 0.426-0.112 0.542-0.313 0.101-0.176 0.107-0.38 0.035-0.553h2.255c-0.132 0.931-0.56 1.791-1.237 2.469v0c-0.826 0.826-1.925 1.281-3.094 1.281s-2.267-0.455-3.094-1.281c-0.826-0.826-1.281-1.925-1.281-3.094s0.455-2.267 1.281-3.094c0.826-0.826 1.925-1.281 3.094-1.281s2.267 0.455 3.094 1.281c0.677 0.677 1.104 1.537 1.237 2.469h-2.255c0.072-0.174 0.067-0.378-0.035-0.553zM25.504 16.87l-1.37-1.37h4.362l1.37 1.37h-4.362z"></path>
</svg>
