<!-- Generated by IcoMoon.io -->
<svg version="1.1" xmlns="http://www.w3.org/2000/svg" width="32" height="32" viewBox="0 0 32 32">
<title>top-quotes</title>
<path fill="#fcae26" d="M0.007 22.205c0 4.207 3.41 7.617 7.617 7.617s7.617-3.41 7.617-7.617-3.41-7.617-7.617-7.617c-0.865 0-1.692 0.151-2.467 0.416 1.714-9.832 9.381-16.172 2.274-10.954-7.881 5.786-7.433 17.922-7.424 18.144 0 0.003-0 0.007-0 0.010z"></path>
<path fill="#fcae26" d="M16.765 22.205c0 4.207 3.41 7.617 7.617 7.617s7.617-3.41 7.617-7.617-3.41-7.617-7.618-7.617c-0.865 0-1.692 0.151-2.467 0.416 1.714-9.832 9.381-16.172 2.274-10.954-7.881 5.786-7.433 17.922-7.424 18.144 0 0.003-0 0.007-0 0.010z"></path>
</svg>
