<!-- Generated by IcoMoon.io -->
<svg version="1.1" xmlns="http://www.w3.org/2000/svg" width="32" height="32" viewBox="0 0 32 32">
<title>up-arrow</title>
<path d="M16 28c0.552 0 1-0.448 1-1v-19.95l7.276 7.639c0.197 0.207 0.46 0.31 0.724 0.31 0.247 0 0.496-0.091 0.689-0.276 0.4-0.381 0.416-1.014 0.035-1.414l-8.309-8.724c-0.378-0.378-0.88-0.586-1.415-0.586s-1.037 0.209-1.431 0.603l-8.293 8.707c-0.381 0.4-0.365 1.033 0.035 1.414s1.034 0.366 1.414-0.034l7.276-7.671v19.981c0 0.552 0.448 1 1 1z"></path>
</svg>
