<!-- Generated by IcoMoon.io -->
<svg version="1.1" xmlns="http://www.w3.org/2000/svg" width="32" height="32" viewBox="0 0 32 32">
<title>world</title>
<path d="M16 0c-8.836 0-16 7.164-16 16s7.164 16 16 16 16-7.164 16-16c-0.010-8.832-7.168-15.99-16-16zM29.838 21.605l-4.55 0.785c0.521-1.91 0.802-3.878 0.837-5.857h4.795c-0.060 1.741-0.427 3.458-1.082 5.072zM1.080 16.533h4.795c0.035 1.979 0.316 3.947 0.837 5.857l-4.55-0.785c-0.656-1.614-1.022-3.331-1.082-5.072zM2.162 10.395l4.55-0.785c-0.521 1.91-0.802 3.878-0.837 5.857h-4.795c0.060-1.741 0.427-3.458 1.082-5.072zM16.533 8.563c1.916 0.024 3.828 0.199 5.717 0.522l1.883 0.325c0.578 1.968 0.89 4.005 0.925 6.056h-8.525zM22.433 8.034c-1.949-0.333-3.922-0.513-5.899-0.537v-6.4c3.058 0.294 5.714 3.093 7.219 7.167zM15.467 7.497c-1.977 0.024-3.949 0.204-5.899 0.537l-1.32 0.228c1.505-4.075 4.161-6.876 7.219-7.168zM9.75 9.085c1.889-0.323 3.801-0.498 5.717-0.522v6.903h-8.525c0.036-2.051 0.347-4.088 0.925-6.056zM6.941 16.533h8.525v6.903c-1.916-0.024-3.828-0.199-5.717-0.522l-1.883-0.325c-0.578-1.968-0.89-4.005-0.925-6.056zM9.567 23.966c1.949 0.334 3.922 0.514 5.899 0.54v6.4c-3.058-0.294-5.714-3.093-7.219-7.168zM16.533 24.506c1.977-0.026 3.949-0.207 5.899-0.54l1.32-0.228c-1.505 4.075-4.161 6.876-7.219 7.168zM22.25 22.915c-1.889 0.323-3.801 0.498-5.717 0.522v-6.903h8.525c-0.036 2.051-0.347 4.088-0.925 6.056zM26.125 15.467c-0.035-1.979-0.316-3.947-0.837-5.857l4.55 0.785c0.656 1.614 1.022 3.331 1.082 5.072zM29.298 9.219l-4.362-0.753c-0.784-2.558-2.251-4.854-4.243-6.64 3.725 1.243 6.815 3.897 8.605 7.393zM11.307 1.827c-1.992 1.786-3.459 4.082-4.243 6.64l-4.362 0.753c1.79-3.496 4.88-6.149 8.605-7.393zM2.702 22.781l4.362 0.753c0.784 2.558 2.251 4.854 4.243 6.64-3.725-1.243-6.815-3.897-8.605-7.393zM20.693 30.173c1.992-1.786 3.459-4.082 4.243-6.64l4.362-0.753c-1.79 3.496-4.88 6.149-8.605 7.393z"></path>
</svg>
